%TF.GenerationSoftware,KiCad,Pcbnew,8.0.7*%
%TF.CreationDate,2025-02-02T23:02:36+05:30*%
%TF.ProjectId,my-template,6d792d74-656d-4706-9c61-74652e6b6963,rev?*%
%TF.SameCoordinates,Original*%
%TF.FileFunction,Legend,Top*%
%TF.FilePolarity,Positive*%
%FSLAX46Y46*%
G04 Gerber Fmt 4.6, Leading zero omitted, Abs format (unit mm)*
G04 Created by KiCad (PCBNEW 8.0.7) date 2025-02-02 23:02:36*
%MOMM*%
%LPD*%
G01*
G04 APERTURE LIST*
%ADD10C,0.150000*%
%ADD11C,0.100000*%
%ADD12C,0.062500*%
%ADD13C,0.152400*%
%ADD14C,0.120000*%
%ADD15C,0.000000*%
%ADD16C,0.200000*%
%ADD17C,0.127000*%
%ADD18C,0.350000*%
G04 APERTURE END LIST*
D10*
X232299819Y-90651666D02*
X232299819Y-91127856D01*
X232299819Y-91127856D02*
X231299819Y-91127856D01*
X232299819Y-89794523D02*
X232299819Y-90365951D01*
X232299819Y-90080237D02*
X231299819Y-90080237D01*
X231299819Y-90080237D02*
X231442676Y-90175475D01*
X231442676Y-90175475D02*
X231537914Y-90270713D01*
X231537914Y-90270713D02*
X231585533Y-90365951D01*
X232433905Y-83512819D02*
X232433905Y-82512819D01*
X232433905Y-82512819D02*
X232672000Y-82512819D01*
X232672000Y-82512819D02*
X232814857Y-82560438D01*
X232814857Y-82560438D02*
X232910095Y-82655676D01*
X232910095Y-82655676D02*
X232957714Y-82750914D01*
X232957714Y-82750914D02*
X233005333Y-82941390D01*
X233005333Y-82941390D02*
X233005333Y-83084247D01*
X233005333Y-83084247D02*
X232957714Y-83274723D01*
X232957714Y-83274723D02*
X232910095Y-83369961D01*
X232910095Y-83369961D02*
X232814857Y-83465200D01*
X232814857Y-83465200D02*
X232672000Y-83512819D01*
X232672000Y-83512819D02*
X232433905Y-83512819D01*
X233957714Y-83512819D02*
X233386286Y-83512819D01*
X233672000Y-83512819D02*
X233672000Y-82512819D01*
X233672000Y-82512819D02*
X233576762Y-82655676D01*
X233576762Y-82655676D02*
X233481524Y-82750914D01*
X233481524Y-82750914D02*
X233386286Y-82798533D01*
X231102819Y-89407999D02*
X231340914Y-89407999D01*
X231245676Y-89646094D02*
X231340914Y-89407999D01*
X231340914Y-89407999D02*
X231245676Y-89169904D01*
X231531390Y-89550856D02*
X231340914Y-89407999D01*
X231340914Y-89407999D02*
X231531390Y-89265142D01*
X227449142Y-97736819D02*
X227115809Y-97260628D01*
X226877714Y-97736819D02*
X226877714Y-96736819D01*
X226877714Y-96736819D02*
X227258666Y-96736819D01*
X227258666Y-96736819D02*
X227353904Y-96784438D01*
X227353904Y-96784438D02*
X227401523Y-96832057D01*
X227401523Y-96832057D02*
X227449142Y-96927295D01*
X227449142Y-96927295D02*
X227449142Y-97070152D01*
X227449142Y-97070152D02*
X227401523Y-97165390D01*
X227401523Y-97165390D02*
X227353904Y-97213009D01*
X227353904Y-97213009D02*
X227258666Y-97260628D01*
X227258666Y-97260628D02*
X226877714Y-97260628D01*
X228401523Y-97736819D02*
X227830095Y-97736819D01*
X228115809Y-97736819D02*
X228115809Y-96736819D01*
X228115809Y-96736819D02*
X228020571Y-96879676D01*
X228020571Y-96879676D02*
X227925333Y-96974914D01*
X227925333Y-96974914D02*
X227830095Y-97022533D01*
X228782476Y-96832057D02*
X228830095Y-96784438D01*
X228830095Y-96784438D02*
X228925333Y-96736819D01*
X228925333Y-96736819D02*
X229163428Y-96736819D01*
X229163428Y-96736819D02*
X229258666Y-96784438D01*
X229258666Y-96784438D02*
X229306285Y-96832057D01*
X229306285Y-96832057D02*
X229353904Y-96927295D01*
X229353904Y-96927295D02*
X229353904Y-97022533D01*
X229353904Y-97022533D02*
X229306285Y-97165390D01*
X229306285Y-97165390D02*
X228734857Y-97736819D01*
X228734857Y-97736819D02*
X229353904Y-97736819D01*
D11*
X214991666Y-101692419D02*
X214991666Y-102406704D01*
X214991666Y-102406704D02*
X214944047Y-102549561D01*
X214944047Y-102549561D02*
X214848809Y-102644800D01*
X214848809Y-102644800D02*
X214705952Y-102692419D01*
X214705952Y-102692419D02*
X214610714Y-102692419D01*
X215896428Y-102025752D02*
X215896428Y-102692419D01*
X215658333Y-101644800D02*
X215420238Y-102359085D01*
X215420238Y-102359085D02*
X216039285Y-102359085D01*
D10*
X225738095Y-105954819D02*
X225738095Y-106764342D01*
X225738095Y-106764342D02*
X225785714Y-106859580D01*
X225785714Y-106859580D02*
X225833333Y-106907200D01*
X225833333Y-106907200D02*
X225928571Y-106954819D01*
X225928571Y-106954819D02*
X226119047Y-106954819D01*
X226119047Y-106954819D02*
X226214285Y-106907200D01*
X226214285Y-106907200D02*
X226261904Y-106859580D01*
X226261904Y-106859580D02*
X226309523Y-106764342D01*
X226309523Y-106764342D02*
X226309523Y-105954819D01*
X226690476Y-105954819D02*
X227309523Y-105954819D01*
X227309523Y-105954819D02*
X226976190Y-106335771D01*
X226976190Y-106335771D02*
X227119047Y-106335771D01*
X227119047Y-106335771D02*
X227214285Y-106383390D01*
X227214285Y-106383390D02*
X227261904Y-106431009D01*
X227261904Y-106431009D02*
X227309523Y-106526247D01*
X227309523Y-106526247D02*
X227309523Y-106764342D01*
X227309523Y-106764342D02*
X227261904Y-106859580D01*
X227261904Y-106859580D02*
X227214285Y-106907200D01*
X227214285Y-106907200D02*
X227119047Y-106954819D01*
X227119047Y-106954819D02*
X226833333Y-106954819D01*
X226833333Y-106954819D02*
X226738095Y-106907200D01*
X226738095Y-106907200D02*
X226690476Y-106859580D01*
X221488000Y-102832819D02*
X221488000Y-103070914D01*
X221249905Y-102975676D02*
X221488000Y-103070914D01*
X221488000Y-103070914D02*
X221726095Y-102975676D01*
X221345143Y-103261390D02*
X221488000Y-103070914D01*
X221488000Y-103070914D02*
X221630857Y-103261390D01*
X233767333Y-95450819D02*
X233434000Y-94974628D01*
X233195905Y-95450819D02*
X233195905Y-94450819D01*
X233195905Y-94450819D02*
X233576857Y-94450819D01*
X233576857Y-94450819D02*
X233672095Y-94498438D01*
X233672095Y-94498438D02*
X233719714Y-94546057D01*
X233719714Y-94546057D02*
X233767333Y-94641295D01*
X233767333Y-94641295D02*
X233767333Y-94784152D01*
X233767333Y-94784152D02*
X233719714Y-94879390D01*
X233719714Y-94879390D02*
X233672095Y-94927009D01*
X233672095Y-94927009D02*
X233576857Y-94974628D01*
X233576857Y-94974628D02*
X233195905Y-94974628D01*
X234100667Y-94450819D02*
X234767333Y-94450819D01*
X234767333Y-94450819D02*
X234338762Y-95450819D01*
X227671333Y-86814819D02*
X227338000Y-86338628D01*
X227099905Y-86814819D02*
X227099905Y-85814819D01*
X227099905Y-85814819D02*
X227480857Y-85814819D01*
X227480857Y-85814819D02*
X227576095Y-85862438D01*
X227576095Y-85862438D02*
X227623714Y-85910057D01*
X227623714Y-85910057D02*
X227671333Y-86005295D01*
X227671333Y-86005295D02*
X227671333Y-86148152D01*
X227671333Y-86148152D02*
X227623714Y-86243390D01*
X227623714Y-86243390D02*
X227576095Y-86291009D01*
X227576095Y-86291009D02*
X227480857Y-86338628D01*
X227480857Y-86338628D02*
X227099905Y-86338628D01*
X228576095Y-85814819D02*
X228099905Y-85814819D01*
X228099905Y-85814819D02*
X228052286Y-86291009D01*
X228052286Y-86291009D02*
X228099905Y-86243390D01*
X228099905Y-86243390D02*
X228195143Y-86195771D01*
X228195143Y-86195771D02*
X228433238Y-86195771D01*
X228433238Y-86195771D02*
X228528476Y-86243390D01*
X228528476Y-86243390D02*
X228576095Y-86291009D01*
X228576095Y-86291009D02*
X228623714Y-86386247D01*
X228623714Y-86386247D02*
X228623714Y-86624342D01*
X228623714Y-86624342D02*
X228576095Y-86719580D01*
X228576095Y-86719580D02*
X228528476Y-86767200D01*
X228528476Y-86767200D02*
X228433238Y-86814819D01*
X228433238Y-86814819D02*
X228195143Y-86814819D01*
X228195143Y-86814819D02*
X228099905Y-86767200D01*
X228099905Y-86767200D02*
X228052286Y-86719580D01*
X230832819Y-97702666D02*
X230356628Y-98035999D01*
X230832819Y-98274094D02*
X229832819Y-98274094D01*
X229832819Y-98274094D02*
X229832819Y-97893142D01*
X229832819Y-97893142D02*
X229880438Y-97797904D01*
X229880438Y-97797904D02*
X229928057Y-97750285D01*
X229928057Y-97750285D02*
X230023295Y-97702666D01*
X230023295Y-97702666D02*
X230166152Y-97702666D01*
X230166152Y-97702666D02*
X230261390Y-97750285D01*
X230261390Y-97750285D02*
X230309009Y-97797904D01*
X230309009Y-97797904D02*
X230356628Y-97893142D01*
X230356628Y-97893142D02*
X230356628Y-98274094D01*
X230832819Y-97226475D02*
X230832819Y-97035999D01*
X230832819Y-97035999D02*
X230785200Y-96940761D01*
X230785200Y-96940761D02*
X230737580Y-96893142D01*
X230737580Y-96893142D02*
X230594723Y-96797904D01*
X230594723Y-96797904D02*
X230404247Y-96750285D01*
X230404247Y-96750285D02*
X230023295Y-96750285D01*
X230023295Y-96750285D02*
X229928057Y-96797904D01*
X229928057Y-96797904D02*
X229880438Y-96845523D01*
X229880438Y-96845523D02*
X229832819Y-96940761D01*
X229832819Y-96940761D02*
X229832819Y-97131237D01*
X229832819Y-97131237D02*
X229880438Y-97226475D01*
X229880438Y-97226475D02*
X229928057Y-97274094D01*
X229928057Y-97274094D02*
X230023295Y-97321713D01*
X230023295Y-97321713D02*
X230261390Y-97321713D01*
X230261390Y-97321713D02*
X230356628Y-97274094D01*
X230356628Y-97274094D02*
X230404247Y-97226475D01*
X230404247Y-97226475D02*
X230451866Y-97131237D01*
X230451866Y-97131237D02*
X230451866Y-96940761D01*
X230451866Y-96940761D02*
X230404247Y-96845523D01*
X230404247Y-96845523D02*
X230356628Y-96797904D01*
X230356628Y-96797904D02*
X230261390Y-96750285D01*
X225298095Y-94450819D02*
X225298095Y-95260342D01*
X225298095Y-95260342D02*
X225345714Y-95355580D01*
X225345714Y-95355580D02*
X225393333Y-95403200D01*
X225393333Y-95403200D02*
X225488571Y-95450819D01*
X225488571Y-95450819D02*
X225679047Y-95450819D01*
X225679047Y-95450819D02*
X225774285Y-95403200D01*
X225774285Y-95403200D02*
X225821904Y-95355580D01*
X225821904Y-95355580D02*
X225869523Y-95260342D01*
X225869523Y-95260342D02*
X225869523Y-94450819D01*
X226298095Y-94546057D02*
X226345714Y-94498438D01*
X226345714Y-94498438D02*
X226440952Y-94450819D01*
X226440952Y-94450819D02*
X226679047Y-94450819D01*
X226679047Y-94450819D02*
X226774285Y-94498438D01*
X226774285Y-94498438D02*
X226821904Y-94546057D01*
X226821904Y-94546057D02*
X226869523Y-94641295D01*
X226869523Y-94641295D02*
X226869523Y-94736533D01*
X226869523Y-94736533D02*
X226821904Y-94879390D01*
X226821904Y-94879390D02*
X226250476Y-95450819D01*
X226250476Y-95450819D02*
X226869523Y-95450819D01*
X224988333Y-90021580D02*
X224940714Y-90069200D01*
X224940714Y-90069200D02*
X224797857Y-90116819D01*
X224797857Y-90116819D02*
X224702619Y-90116819D01*
X224702619Y-90116819D02*
X224559762Y-90069200D01*
X224559762Y-90069200D02*
X224464524Y-89973961D01*
X224464524Y-89973961D02*
X224416905Y-89878723D01*
X224416905Y-89878723D02*
X224369286Y-89688247D01*
X224369286Y-89688247D02*
X224369286Y-89545390D01*
X224369286Y-89545390D02*
X224416905Y-89354914D01*
X224416905Y-89354914D02*
X224464524Y-89259676D01*
X224464524Y-89259676D02*
X224559762Y-89164438D01*
X224559762Y-89164438D02*
X224702619Y-89116819D01*
X224702619Y-89116819D02*
X224797857Y-89116819D01*
X224797857Y-89116819D02*
X224940714Y-89164438D01*
X224940714Y-89164438D02*
X224988333Y-89212057D01*
X225321667Y-89116819D02*
X225988333Y-89116819D01*
X225988333Y-89116819D02*
X225559762Y-90116819D01*
X232021142Y-104309580D02*
X231973523Y-104357200D01*
X231973523Y-104357200D02*
X231830666Y-104404819D01*
X231830666Y-104404819D02*
X231735428Y-104404819D01*
X231735428Y-104404819D02*
X231592571Y-104357200D01*
X231592571Y-104357200D02*
X231497333Y-104261961D01*
X231497333Y-104261961D02*
X231449714Y-104166723D01*
X231449714Y-104166723D02*
X231402095Y-103976247D01*
X231402095Y-103976247D02*
X231402095Y-103833390D01*
X231402095Y-103833390D02*
X231449714Y-103642914D01*
X231449714Y-103642914D02*
X231497333Y-103547676D01*
X231497333Y-103547676D02*
X231592571Y-103452438D01*
X231592571Y-103452438D02*
X231735428Y-103404819D01*
X231735428Y-103404819D02*
X231830666Y-103404819D01*
X231830666Y-103404819D02*
X231973523Y-103452438D01*
X231973523Y-103452438D02*
X232021142Y-103500057D01*
X232973523Y-104404819D02*
X232402095Y-104404819D01*
X232687809Y-104404819D02*
X232687809Y-103404819D01*
X232687809Y-103404819D02*
X232592571Y-103547676D01*
X232592571Y-103547676D02*
X232497333Y-103642914D01*
X232497333Y-103642914D02*
X232402095Y-103690533D01*
X233925904Y-104404819D02*
X233354476Y-104404819D01*
X233640190Y-104404819D02*
X233640190Y-103404819D01*
X233640190Y-103404819D02*
X233544952Y-103547676D01*
X233544952Y-103547676D02*
X233449714Y-103642914D01*
X233449714Y-103642914D02*
X233354476Y-103690533D01*
X231357142Y-112909580D02*
X231309523Y-112957200D01*
X231309523Y-112957200D02*
X231166666Y-113004819D01*
X231166666Y-113004819D02*
X231071428Y-113004819D01*
X231071428Y-113004819D02*
X230928571Y-112957200D01*
X230928571Y-112957200D02*
X230833333Y-112861961D01*
X230833333Y-112861961D02*
X230785714Y-112766723D01*
X230785714Y-112766723D02*
X230738095Y-112576247D01*
X230738095Y-112576247D02*
X230738095Y-112433390D01*
X230738095Y-112433390D02*
X230785714Y-112242914D01*
X230785714Y-112242914D02*
X230833333Y-112147676D01*
X230833333Y-112147676D02*
X230928571Y-112052438D01*
X230928571Y-112052438D02*
X231071428Y-112004819D01*
X231071428Y-112004819D02*
X231166666Y-112004819D01*
X231166666Y-112004819D02*
X231309523Y-112052438D01*
X231309523Y-112052438D02*
X231357142Y-112100057D01*
X232309523Y-113004819D02*
X231738095Y-113004819D01*
X232023809Y-113004819D02*
X232023809Y-112004819D01*
X232023809Y-112004819D02*
X231928571Y-112147676D01*
X231928571Y-112147676D02*
X231833333Y-112242914D01*
X231833333Y-112242914D02*
X231738095Y-112290533D01*
X232690476Y-112100057D02*
X232738095Y-112052438D01*
X232738095Y-112052438D02*
X232833333Y-112004819D01*
X232833333Y-112004819D02*
X233071428Y-112004819D01*
X233071428Y-112004819D02*
X233166666Y-112052438D01*
X233166666Y-112052438D02*
X233214285Y-112100057D01*
X233214285Y-112100057D02*
X233261904Y-112195295D01*
X233261904Y-112195295D02*
X233261904Y-112290533D01*
X233261904Y-112290533D02*
X233214285Y-112433390D01*
X233214285Y-112433390D02*
X232642857Y-113004819D01*
X232642857Y-113004819D02*
X233261904Y-113004819D01*
X219067142Y-105261580D02*
X219019523Y-105309200D01*
X219019523Y-105309200D02*
X218876666Y-105356819D01*
X218876666Y-105356819D02*
X218781428Y-105356819D01*
X218781428Y-105356819D02*
X218638571Y-105309200D01*
X218638571Y-105309200D02*
X218543333Y-105213961D01*
X218543333Y-105213961D02*
X218495714Y-105118723D01*
X218495714Y-105118723D02*
X218448095Y-104928247D01*
X218448095Y-104928247D02*
X218448095Y-104785390D01*
X218448095Y-104785390D02*
X218495714Y-104594914D01*
X218495714Y-104594914D02*
X218543333Y-104499676D01*
X218543333Y-104499676D02*
X218638571Y-104404438D01*
X218638571Y-104404438D02*
X218781428Y-104356819D01*
X218781428Y-104356819D02*
X218876666Y-104356819D01*
X218876666Y-104356819D02*
X219019523Y-104404438D01*
X219019523Y-104404438D02*
X219067142Y-104452057D01*
X220019523Y-105356819D02*
X219448095Y-105356819D01*
X219733809Y-105356819D02*
X219733809Y-104356819D01*
X219733809Y-104356819D02*
X219638571Y-104499676D01*
X219638571Y-104499676D02*
X219543333Y-104594914D01*
X219543333Y-104594914D02*
X219448095Y-104642533D01*
X220876666Y-104690152D02*
X220876666Y-105356819D01*
X220638571Y-104309200D02*
X220400476Y-105023485D01*
X220400476Y-105023485D02*
X221019523Y-105023485D01*
X218291580Y-118987857D02*
X218339200Y-119035476D01*
X218339200Y-119035476D02*
X218386819Y-119178333D01*
X218386819Y-119178333D02*
X218386819Y-119273571D01*
X218386819Y-119273571D02*
X218339200Y-119416428D01*
X218339200Y-119416428D02*
X218243961Y-119511666D01*
X218243961Y-119511666D02*
X218148723Y-119559285D01*
X218148723Y-119559285D02*
X217958247Y-119606904D01*
X217958247Y-119606904D02*
X217815390Y-119606904D01*
X217815390Y-119606904D02*
X217624914Y-119559285D01*
X217624914Y-119559285D02*
X217529676Y-119511666D01*
X217529676Y-119511666D02*
X217434438Y-119416428D01*
X217434438Y-119416428D02*
X217386819Y-119273571D01*
X217386819Y-119273571D02*
X217386819Y-119178333D01*
X217386819Y-119178333D02*
X217434438Y-119035476D01*
X217434438Y-119035476D02*
X217482057Y-118987857D01*
X218386819Y-118035476D02*
X218386819Y-118606904D01*
X218386819Y-118321190D02*
X217386819Y-118321190D01*
X217386819Y-118321190D02*
X217529676Y-118416428D01*
X217529676Y-118416428D02*
X217624914Y-118511666D01*
X217624914Y-118511666D02*
X217672533Y-118606904D01*
X217386819Y-117702142D02*
X217386819Y-117083095D01*
X217386819Y-117083095D02*
X217767771Y-117416428D01*
X217767771Y-117416428D02*
X217767771Y-117273571D01*
X217767771Y-117273571D02*
X217815390Y-117178333D01*
X217815390Y-117178333D02*
X217863009Y-117130714D01*
X217863009Y-117130714D02*
X217958247Y-117083095D01*
X217958247Y-117083095D02*
X218196342Y-117083095D01*
X218196342Y-117083095D02*
X218291580Y-117130714D01*
X218291580Y-117130714D02*
X218339200Y-117178333D01*
X218339200Y-117178333D02*
X218386819Y-117273571D01*
X218386819Y-117273571D02*
X218386819Y-117559285D01*
X218386819Y-117559285D02*
X218339200Y-117654523D01*
X218339200Y-117654523D02*
X218291580Y-117702142D01*
X222623142Y-113135580D02*
X222575523Y-113183200D01*
X222575523Y-113183200D02*
X222432666Y-113230819D01*
X222432666Y-113230819D02*
X222337428Y-113230819D01*
X222337428Y-113230819D02*
X222194571Y-113183200D01*
X222194571Y-113183200D02*
X222099333Y-113087961D01*
X222099333Y-113087961D02*
X222051714Y-112992723D01*
X222051714Y-112992723D02*
X222004095Y-112802247D01*
X222004095Y-112802247D02*
X222004095Y-112659390D01*
X222004095Y-112659390D02*
X222051714Y-112468914D01*
X222051714Y-112468914D02*
X222099333Y-112373676D01*
X222099333Y-112373676D02*
X222194571Y-112278438D01*
X222194571Y-112278438D02*
X222337428Y-112230819D01*
X222337428Y-112230819D02*
X222432666Y-112230819D01*
X222432666Y-112230819D02*
X222575523Y-112278438D01*
X222575523Y-112278438D02*
X222623142Y-112326057D01*
X223575523Y-113230819D02*
X223004095Y-113230819D01*
X223289809Y-113230819D02*
X223289809Y-112230819D01*
X223289809Y-112230819D02*
X223194571Y-112373676D01*
X223194571Y-112373676D02*
X223099333Y-112468914D01*
X223099333Y-112468914D02*
X223004095Y-112516533D01*
X224480285Y-112230819D02*
X224004095Y-112230819D01*
X224004095Y-112230819D02*
X223956476Y-112707009D01*
X223956476Y-112707009D02*
X224004095Y-112659390D01*
X224004095Y-112659390D02*
X224099333Y-112611771D01*
X224099333Y-112611771D02*
X224337428Y-112611771D01*
X224337428Y-112611771D02*
X224432666Y-112659390D01*
X224432666Y-112659390D02*
X224480285Y-112707009D01*
X224480285Y-112707009D02*
X224527904Y-112802247D01*
X224527904Y-112802247D02*
X224527904Y-113040342D01*
X224527904Y-113040342D02*
X224480285Y-113135580D01*
X224480285Y-113135580D02*
X224432666Y-113183200D01*
X224432666Y-113183200D02*
X224337428Y-113230819D01*
X224337428Y-113230819D02*
X224099333Y-113230819D01*
X224099333Y-113230819D02*
X224004095Y-113183200D01*
X224004095Y-113183200D02*
X223956476Y-113135580D01*
X223720819Y-97924857D02*
X223244628Y-98258190D01*
X223720819Y-98496285D02*
X222720819Y-98496285D01*
X222720819Y-98496285D02*
X222720819Y-98115333D01*
X222720819Y-98115333D02*
X222768438Y-98020095D01*
X222768438Y-98020095D02*
X222816057Y-97972476D01*
X222816057Y-97972476D02*
X222911295Y-97924857D01*
X222911295Y-97924857D02*
X223054152Y-97924857D01*
X223054152Y-97924857D02*
X223149390Y-97972476D01*
X223149390Y-97972476D02*
X223197009Y-98020095D01*
X223197009Y-98020095D02*
X223244628Y-98115333D01*
X223244628Y-98115333D02*
X223244628Y-98496285D01*
X223720819Y-96972476D02*
X223720819Y-97543904D01*
X223720819Y-97258190D02*
X222720819Y-97258190D01*
X222720819Y-97258190D02*
X222863676Y-97353428D01*
X222863676Y-97353428D02*
X222958914Y-97448666D01*
X222958914Y-97448666D02*
X223006533Y-97543904D01*
X223720819Y-96020095D02*
X223720819Y-96591523D01*
X223720819Y-96305809D02*
X222720819Y-96305809D01*
X222720819Y-96305809D02*
X222863676Y-96401047D01*
X222863676Y-96401047D02*
X222958914Y-96496285D01*
X222958914Y-96496285D02*
X223006533Y-96591523D01*
X220309580Y-95666666D02*
X220357200Y-95714285D01*
X220357200Y-95714285D02*
X220404819Y-95857142D01*
X220404819Y-95857142D02*
X220404819Y-95952380D01*
X220404819Y-95952380D02*
X220357200Y-96095237D01*
X220357200Y-96095237D02*
X220261961Y-96190475D01*
X220261961Y-96190475D02*
X220166723Y-96238094D01*
X220166723Y-96238094D02*
X219976247Y-96285713D01*
X219976247Y-96285713D02*
X219833390Y-96285713D01*
X219833390Y-96285713D02*
X219642914Y-96238094D01*
X219642914Y-96238094D02*
X219547676Y-96190475D01*
X219547676Y-96190475D02*
X219452438Y-96095237D01*
X219452438Y-96095237D02*
X219404819Y-95952380D01*
X219404819Y-95952380D02*
X219404819Y-95857142D01*
X219404819Y-95857142D02*
X219452438Y-95714285D01*
X219452438Y-95714285D02*
X219500057Y-95666666D01*
X219404819Y-95333332D02*
X219404819Y-94714285D01*
X219404819Y-94714285D02*
X219785771Y-95047618D01*
X219785771Y-95047618D02*
X219785771Y-94904761D01*
X219785771Y-94904761D02*
X219833390Y-94809523D01*
X219833390Y-94809523D02*
X219881009Y-94761904D01*
X219881009Y-94761904D02*
X219976247Y-94714285D01*
X219976247Y-94714285D02*
X220214342Y-94714285D01*
X220214342Y-94714285D02*
X220309580Y-94761904D01*
X220309580Y-94761904D02*
X220357200Y-94809523D01*
X220357200Y-94809523D02*
X220404819Y-94904761D01*
X220404819Y-94904761D02*
X220404819Y-95190475D01*
X220404819Y-95190475D02*
X220357200Y-95285713D01*
X220357200Y-95285713D02*
X220309580Y-95333332D01*
X218019333Y-95704819D02*
X217686000Y-95228628D01*
X217447905Y-95704819D02*
X217447905Y-94704819D01*
X217447905Y-94704819D02*
X217828857Y-94704819D01*
X217828857Y-94704819D02*
X217924095Y-94752438D01*
X217924095Y-94752438D02*
X217971714Y-94800057D01*
X217971714Y-94800057D02*
X218019333Y-94895295D01*
X218019333Y-94895295D02*
X218019333Y-95038152D01*
X218019333Y-95038152D02*
X217971714Y-95133390D01*
X217971714Y-95133390D02*
X217924095Y-95181009D01*
X217924095Y-95181009D02*
X217828857Y-95228628D01*
X217828857Y-95228628D02*
X217447905Y-95228628D01*
X218400286Y-94800057D02*
X218447905Y-94752438D01*
X218447905Y-94752438D02*
X218543143Y-94704819D01*
X218543143Y-94704819D02*
X218781238Y-94704819D01*
X218781238Y-94704819D02*
X218876476Y-94752438D01*
X218876476Y-94752438D02*
X218924095Y-94800057D01*
X218924095Y-94800057D02*
X218971714Y-94895295D01*
X218971714Y-94895295D02*
X218971714Y-94990533D01*
X218971714Y-94990533D02*
X218924095Y-95133390D01*
X218924095Y-95133390D02*
X218352667Y-95704819D01*
X218352667Y-95704819D02*
X218971714Y-95704819D01*
X233513333Y-106284819D02*
X233180000Y-105808628D01*
X232941905Y-106284819D02*
X232941905Y-105284819D01*
X232941905Y-105284819D02*
X233322857Y-105284819D01*
X233322857Y-105284819D02*
X233418095Y-105332438D01*
X233418095Y-105332438D02*
X233465714Y-105380057D01*
X233465714Y-105380057D02*
X233513333Y-105475295D01*
X233513333Y-105475295D02*
X233513333Y-105618152D01*
X233513333Y-105618152D02*
X233465714Y-105713390D01*
X233465714Y-105713390D02*
X233418095Y-105761009D01*
X233418095Y-105761009D02*
X233322857Y-105808628D01*
X233322857Y-105808628D02*
X232941905Y-105808628D01*
X233846667Y-105284819D02*
X234465714Y-105284819D01*
X234465714Y-105284819D02*
X234132381Y-105665771D01*
X234132381Y-105665771D02*
X234275238Y-105665771D01*
X234275238Y-105665771D02*
X234370476Y-105713390D01*
X234370476Y-105713390D02*
X234418095Y-105761009D01*
X234418095Y-105761009D02*
X234465714Y-105856247D01*
X234465714Y-105856247D02*
X234465714Y-106094342D01*
X234465714Y-106094342D02*
X234418095Y-106189580D01*
X234418095Y-106189580D02*
X234370476Y-106237200D01*
X234370476Y-106237200D02*
X234275238Y-106284819D01*
X234275238Y-106284819D02*
X233989524Y-106284819D01*
X233989524Y-106284819D02*
X233894286Y-106237200D01*
X233894286Y-106237200D02*
X233846667Y-106189580D01*
X231690057Y-99409238D02*
X231642438Y-99504476D01*
X231642438Y-99504476D02*
X231547200Y-99599714D01*
X231547200Y-99599714D02*
X231404342Y-99742571D01*
X231404342Y-99742571D02*
X231356723Y-99837809D01*
X231356723Y-99837809D02*
X231356723Y-99933047D01*
X231594819Y-99885428D02*
X231547200Y-99980666D01*
X231547200Y-99980666D02*
X231451961Y-100075904D01*
X231451961Y-100075904D02*
X231261485Y-100123523D01*
X231261485Y-100123523D02*
X230928152Y-100123523D01*
X230928152Y-100123523D02*
X230737676Y-100075904D01*
X230737676Y-100075904D02*
X230642438Y-99980666D01*
X230642438Y-99980666D02*
X230594819Y-99885428D01*
X230594819Y-99885428D02*
X230594819Y-99694952D01*
X230594819Y-99694952D02*
X230642438Y-99599714D01*
X230642438Y-99599714D02*
X230737676Y-99504476D01*
X230737676Y-99504476D02*
X230928152Y-99456857D01*
X230928152Y-99456857D02*
X231261485Y-99456857D01*
X231261485Y-99456857D02*
X231451961Y-99504476D01*
X231451961Y-99504476D02*
X231547200Y-99599714D01*
X231547200Y-99599714D02*
X231594819Y-99694952D01*
X231594819Y-99694952D02*
X231594819Y-99885428D01*
X231594819Y-98504476D02*
X231594819Y-99075904D01*
X231594819Y-98790190D02*
X230594819Y-98790190D01*
X230594819Y-98790190D02*
X230737676Y-98885428D01*
X230737676Y-98885428D02*
X230832914Y-98980666D01*
X230832914Y-98980666D02*
X230880533Y-99075904D01*
X223639142Y-86306819D02*
X223305809Y-85830628D01*
X223067714Y-86306819D02*
X223067714Y-85306819D01*
X223067714Y-85306819D02*
X223448666Y-85306819D01*
X223448666Y-85306819D02*
X223543904Y-85354438D01*
X223543904Y-85354438D02*
X223591523Y-85402057D01*
X223591523Y-85402057D02*
X223639142Y-85497295D01*
X223639142Y-85497295D02*
X223639142Y-85640152D01*
X223639142Y-85640152D02*
X223591523Y-85735390D01*
X223591523Y-85735390D02*
X223543904Y-85783009D01*
X223543904Y-85783009D02*
X223448666Y-85830628D01*
X223448666Y-85830628D02*
X223067714Y-85830628D01*
X224591523Y-86306819D02*
X224020095Y-86306819D01*
X224305809Y-86306819D02*
X224305809Y-85306819D01*
X224305809Y-85306819D02*
X224210571Y-85449676D01*
X224210571Y-85449676D02*
X224115333Y-85544914D01*
X224115333Y-85544914D02*
X224020095Y-85592533D01*
X224924857Y-85306819D02*
X225543904Y-85306819D01*
X225543904Y-85306819D02*
X225210571Y-85687771D01*
X225210571Y-85687771D02*
X225353428Y-85687771D01*
X225353428Y-85687771D02*
X225448666Y-85735390D01*
X225448666Y-85735390D02*
X225496285Y-85783009D01*
X225496285Y-85783009D02*
X225543904Y-85878247D01*
X225543904Y-85878247D02*
X225543904Y-86116342D01*
X225543904Y-86116342D02*
X225496285Y-86211580D01*
X225496285Y-86211580D02*
X225448666Y-86259200D01*
X225448666Y-86259200D02*
X225353428Y-86306819D01*
X225353428Y-86306819D02*
X225067714Y-86306819D01*
X225067714Y-86306819D02*
X224972476Y-86259200D01*
X224972476Y-86259200D02*
X224924857Y-86211580D01*
X232751333Y-110436819D02*
X232418000Y-109960628D01*
X232179905Y-110436819D02*
X232179905Y-109436819D01*
X232179905Y-109436819D02*
X232560857Y-109436819D01*
X232560857Y-109436819D02*
X232656095Y-109484438D01*
X232656095Y-109484438D02*
X232703714Y-109532057D01*
X232703714Y-109532057D02*
X232751333Y-109627295D01*
X232751333Y-109627295D02*
X232751333Y-109770152D01*
X232751333Y-109770152D02*
X232703714Y-109865390D01*
X232703714Y-109865390D02*
X232656095Y-109913009D01*
X232656095Y-109913009D02*
X232560857Y-109960628D01*
X232560857Y-109960628D02*
X232179905Y-109960628D01*
X233608476Y-109770152D02*
X233608476Y-110436819D01*
X233370381Y-109389200D02*
X233132286Y-110103485D01*
X233132286Y-110103485D02*
X233751333Y-110103485D01*
X224401142Y-92561580D02*
X224353523Y-92609200D01*
X224353523Y-92609200D02*
X224210666Y-92656819D01*
X224210666Y-92656819D02*
X224115428Y-92656819D01*
X224115428Y-92656819D02*
X223972571Y-92609200D01*
X223972571Y-92609200D02*
X223877333Y-92513961D01*
X223877333Y-92513961D02*
X223829714Y-92418723D01*
X223829714Y-92418723D02*
X223782095Y-92228247D01*
X223782095Y-92228247D02*
X223782095Y-92085390D01*
X223782095Y-92085390D02*
X223829714Y-91894914D01*
X223829714Y-91894914D02*
X223877333Y-91799676D01*
X223877333Y-91799676D02*
X223972571Y-91704438D01*
X223972571Y-91704438D02*
X224115428Y-91656819D01*
X224115428Y-91656819D02*
X224210666Y-91656819D01*
X224210666Y-91656819D02*
X224353523Y-91704438D01*
X224353523Y-91704438D02*
X224401142Y-91752057D01*
X225353523Y-92656819D02*
X224782095Y-92656819D01*
X225067809Y-92656819D02*
X225067809Y-91656819D01*
X225067809Y-91656819D02*
X224972571Y-91799676D01*
X224972571Y-91799676D02*
X224877333Y-91894914D01*
X224877333Y-91894914D02*
X224782095Y-91942533D01*
X225972571Y-91656819D02*
X226067809Y-91656819D01*
X226067809Y-91656819D02*
X226163047Y-91704438D01*
X226163047Y-91704438D02*
X226210666Y-91752057D01*
X226210666Y-91752057D02*
X226258285Y-91847295D01*
X226258285Y-91847295D02*
X226305904Y-92037771D01*
X226305904Y-92037771D02*
X226305904Y-92275866D01*
X226305904Y-92275866D02*
X226258285Y-92466342D01*
X226258285Y-92466342D02*
X226210666Y-92561580D01*
X226210666Y-92561580D02*
X226163047Y-92609200D01*
X226163047Y-92609200D02*
X226067809Y-92656819D01*
X226067809Y-92656819D02*
X225972571Y-92656819D01*
X225972571Y-92656819D02*
X225877333Y-92609200D01*
X225877333Y-92609200D02*
X225829714Y-92561580D01*
X225829714Y-92561580D02*
X225782095Y-92466342D01*
X225782095Y-92466342D02*
X225734476Y-92275866D01*
X225734476Y-92275866D02*
X225734476Y-92037771D01*
X225734476Y-92037771D02*
X225782095Y-91847295D01*
X225782095Y-91847295D02*
X225829714Y-91752057D01*
X225829714Y-91752057D02*
X225877333Y-91704438D01*
X225877333Y-91704438D02*
X225972571Y-91656819D01*
X226941142Y-113389580D02*
X226893523Y-113437200D01*
X226893523Y-113437200D02*
X226750666Y-113484819D01*
X226750666Y-113484819D02*
X226655428Y-113484819D01*
X226655428Y-113484819D02*
X226512571Y-113437200D01*
X226512571Y-113437200D02*
X226417333Y-113341961D01*
X226417333Y-113341961D02*
X226369714Y-113246723D01*
X226369714Y-113246723D02*
X226322095Y-113056247D01*
X226322095Y-113056247D02*
X226322095Y-112913390D01*
X226322095Y-112913390D02*
X226369714Y-112722914D01*
X226369714Y-112722914D02*
X226417333Y-112627676D01*
X226417333Y-112627676D02*
X226512571Y-112532438D01*
X226512571Y-112532438D02*
X226655428Y-112484819D01*
X226655428Y-112484819D02*
X226750666Y-112484819D01*
X226750666Y-112484819D02*
X226893523Y-112532438D01*
X226893523Y-112532438D02*
X226941142Y-112580057D01*
X227893523Y-113484819D02*
X227322095Y-113484819D01*
X227607809Y-113484819D02*
X227607809Y-112484819D01*
X227607809Y-112484819D02*
X227512571Y-112627676D01*
X227512571Y-112627676D02*
X227417333Y-112722914D01*
X227417333Y-112722914D02*
X227322095Y-112770533D01*
X228464952Y-112913390D02*
X228369714Y-112865771D01*
X228369714Y-112865771D02*
X228322095Y-112818152D01*
X228322095Y-112818152D02*
X228274476Y-112722914D01*
X228274476Y-112722914D02*
X228274476Y-112675295D01*
X228274476Y-112675295D02*
X228322095Y-112580057D01*
X228322095Y-112580057D02*
X228369714Y-112532438D01*
X228369714Y-112532438D02*
X228464952Y-112484819D01*
X228464952Y-112484819D02*
X228655428Y-112484819D01*
X228655428Y-112484819D02*
X228750666Y-112532438D01*
X228750666Y-112532438D02*
X228798285Y-112580057D01*
X228798285Y-112580057D02*
X228845904Y-112675295D01*
X228845904Y-112675295D02*
X228845904Y-112722914D01*
X228845904Y-112722914D02*
X228798285Y-112818152D01*
X228798285Y-112818152D02*
X228750666Y-112865771D01*
X228750666Y-112865771D02*
X228655428Y-112913390D01*
X228655428Y-112913390D02*
X228464952Y-112913390D01*
X228464952Y-112913390D02*
X228369714Y-112961009D01*
X228369714Y-112961009D02*
X228322095Y-113008628D01*
X228322095Y-113008628D02*
X228274476Y-113103866D01*
X228274476Y-113103866D02*
X228274476Y-113294342D01*
X228274476Y-113294342D02*
X228322095Y-113389580D01*
X228322095Y-113389580D02*
X228369714Y-113437200D01*
X228369714Y-113437200D02*
X228464952Y-113484819D01*
X228464952Y-113484819D02*
X228655428Y-113484819D01*
X228655428Y-113484819D02*
X228750666Y-113437200D01*
X228750666Y-113437200D02*
X228798285Y-113389580D01*
X228798285Y-113389580D02*
X228845904Y-113294342D01*
X228845904Y-113294342D02*
X228845904Y-113103866D01*
X228845904Y-113103866D02*
X228798285Y-113008628D01*
X228798285Y-113008628D02*
X228750666Y-112961009D01*
X228750666Y-112961009D02*
X228655428Y-112913390D01*
X220083142Y-115008819D02*
X219749809Y-114532628D01*
X219511714Y-115008819D02*
X219511714Y-114008819D01*
X219511714Y-114008819D02*
X219892666Y-114008819D01*
X219892666Y-114008819D02*
X219987904Y-114056438D01*
X219987904Y-114056438D02*
X220035523Y-114104057D01*
X220035523Y-114104057D02*
X220083142Y-114199295D01*
X220083142Y-114199295D02*
X220083142Y-114342152D01*
X220083142Y-114342152D02*
X220035523Y-114437390D01*
X220035523Y-114437390D02*
X219987904Y-114485009D01*
X219987904Y-114485009D02*
X219892666Y-114532628D01*
X219892666Y-114532628D02*
X219511714Y-114532628D01*
X221035523Y-115008819D02*
X220464095Y-115008819D01*
X220749809Y-115008819D02*
X220749809Y-114008819D01*
X220749809Y-114008819D02*
X220654571Y-114151676D01*
X220654571Y-114151676D02*
X220559333Y-114246914D01*
X220559333Y-114246914D02*
X220464095Y-114294533D01*
X221892666Y-114342152D02*
X221892666Y-115008819D01*
X221654571Y-113961200D02*
X221416476Y-114675485D01*
X221416476Y-114675485D02*
X222035523Y-114675485D01*
X228883333Y-88179580D02*
X228835714Y-88227200D01*
X228835714Y-88227200D02*
X228692857Y-88274819D01*
X228692857Y-88274819D02*
X228597619Y-88274819D01*
X228597619Y-88274819D02*
X228454762Y-88227200D01*
X228454762Y-88227200D02*
X228359524Y-88131961D01*
X228359524Y-88131961D02*
X228311905Y-88036723D01*
X228311905Y-88036723D02*
X228264286Y-87846247D01*
X228264286Y-87846247D02*
X228264286Y-87703390D01*
X228264286Y-87703390D02*
X228311905Y-87512914D01*
X228311905Y-87512914D02*
X228359524Y-87417676D01*
X228359524Y-87417676D02*
X228454762Y-87322438D01*
X228454762Y-87322438D02*
X228597619Y-87274819D01*
X228597619Y-87274819D02*
X228692857Y-87274819D01*
X228692857Y-87274819D02*
X228835714Y-87322438D01*
X228835714Y-87322438D02*
X228883333Y-87370057D01*
X229835714Y-88274819D02*
X229264286Y-88274819D01*
X229550000Y-88274819D02*
X229550000Y-87274819D01*
X229550000Y-87274819D02*
X229454762Y-87417676D01*
X229454762Y-87417676D02*
X229359524Y-87512914D01*
X229359524Y-87512914D02*
X229264286Y-87560533D01*
X211290819Y-98805904D02*
X212100342Y-98805904D01*
X212100342Y-98805904D02*
X212195580Y-98758285D01*
X212195580Y-98758285D02*
X212243200Y-98710666D01*
X212243200Y-98710666D02*
X212290819Y-98615428D01*
X212290819Y-98615428D02*
X212290819Y-98424952D01*
X212290819Y-98424952D02*
X212243200Y-98329714D01*
X212243200Y-98329714D02*
X212195580Y-98282095D01*
X212195580Y-98282095D02*
X212100342Y-98234476D01*
X212100342Y-98234476D02*
X211290819Y-98234476D01*
X212290819Y-97234476D02*
X212290819Y-97805904D01*
X212290819Y-97520190D02*
X211290819Y-97520190D01*
X211290819Y-97520190D02*
X211433676Y-97615428D01*
X211433676Y-97615428D02*
X211528914Y-97710666D01*
X211528914Y-97710666D02*
X211576533Y-97805904D01*
X232497333Y-93831580D02*
X232449714Y-93879200D01*
X232449714Y-93879200D02*
X232306857Y-93926819D01*
X232306857Y-93926819D02*
X232211619Y-93926819D01*
X232211619Y-93926819D02*
X232068762Y-93879200D01*
X232068762Y-93879200D02*
X231973524Y-93783961D01*
X231973524Y-93783961D02*
X231925905Y-93688723D01*
X231925905Y-93688723D02*
X231878286Y-93498247D01*
X231878286Y-93498247D02*
X231878286Y-93355390D01*
X231878286Y-93355390D02*
X231925905Y-93164914D01*
X231925905Y-93164914D02*
X231973524Y-93069676D01*
X231973524Y-93069676D02*
X232068762Y-92974438D01*
X232068762Y-92974438D02*
X232211619Y-92926819D01*
X232211619Y-92926819D02*
X232306857Y-92926819D01*
X232306857Y-92926819D02*
X232449714Y-92974438D01*
X232449714Y-92974438D02*
X232497333Y-93022057D01*
X233402095Y-92926819D02*
X232925905Y-92926819D01*
X232925905Y-92926819D02*
X232878286Y-93403009D01*
X232878286Y-93403009D02*
X232925905Y-93355390D01*
X232925905Y-93355390D02*
X233021143Y-93307771D01*
X233021143Y-93307771D02*
X233259238Y-93307771D01*
X233259238Y-93307771D02*
X233354476Y-93355390D01*
X233354476Y-93355390D02*
X233402095Y-93403009D01*
X233402095Y-93403009D02*
X233449714Y-93498247D01*
X233449714Y-93498247D02*
X233449714Y-93736342D01*
X233449714Y-93736342D02*
X233402095Y-93831580D01*
X233402095Y-93831580D02*
X233354476Y-93879200D01*
X233354476Y-93879200D02*
X233259238Y-93926819D01*
X233259238Y-93926819D02*
X233021143Y-93926819D01*
X233021143Y-93926819D02*
X232925905Y-93879200D01*
X232925905Y-93879200D02*
X232878286Y-93831580D01*
X217765333Y-103483580D02*
X217717714Y-103531200D01*
X217717714Y-103531200D02*
X217574857Y-103578819D01*
X217574857Y-103578819D02*
X217479619Y-103578819D01*
X217479619Y-103578819D02*
X217336762Y-103531200D01*
X217336762Y-103531200D02*
X217241524Y-103435961D01*
X217241524Y-103435961D02*
X217193905Y-103340723D01*
X217193905Y-103340723D02*
X217146286Y-103150247D01*
X217146286Y-103150247D02*
X217146286Y-103007390D01*
X217146286Y-103007390D02*
X217193905Y-102816914D01*
X217193905Y-102816914D02*
X217241524Y-102721676D01*
X217241524Y-102721676D02*
X217336762Y-102626438D01*
X217336762Y-102626438D02*
X217479619Y-102578819D01*
X217479619Y-102578819D02*
X217574857Y-102578819D01*
X217574857Y-102578819D02*
X217717714Y-102626438D01*
X217717714Y-102626438D02*
X217765333Y-102674057D01*
X218622476Y-102912152D02*
X218622476Y-103578819D01*
X218384381Y-102531200D02*
X218146286Y-103245485D01*
X218146286Y-103245485D02*
X218765333Y-103245485D01*
X225417142Y-120501580D02*
X225369523Y-120549200D01*
X225369523Y-120549200D02*
X225226666Y-120596819D01*
X225226666Y-120596819D02*
X225131428Y-120596819D01*
X225131428Y-120596819D02*
X224988571Y-120549200D01*
X224988571Y-120549200D02*
X224893333Y-120453961D01*
X224893333Y-120453961D02*
X224845714Y-120358723D01*
X224845714Y-120358723D02*
X224798095Y-120168247D01*
X224798095Y-120168247D02*
X224798095Y-120025390D01*
X224798095Y-120025390D02*
X224845714Y-119834914D01*
X224845714Y-119834914D02*
X224893333Y-119739676D01*
X224893333Y-119739676D02*
X224988571Y-119644438D01*
X224988571Y-119644438D02*
X225131428Y-119596819D01*
X225131428Y-119596819D02*
X225226666Y-119596819D01*
X225226666Y-119596819D02*
X225369523Y-119644438D01*
X225369523Y-119644438D02*
X225417142Y-119692057D01*
X226369523Y-120596819D02*
X225798095Y-120596819D01*
X226083809Y-120596819D02*
X226083809Y-119596819D01*
X226083809Y-119596819D02*
X225988571Y-119739676D01*
X225988571Y-119739676D02*
X225893333Y-119834914D01*
X225893333Y-119834914D02*
X225798095Y-119882533D01*
X226702857Y-119596819D02*
X227369523Y-119596819D01*
X227369523Y-119596819D02*
X226940952Y-120596819D01*
X231735333Y-96117580D02*
X231687714Y-96165200D01*
X231687714Y-96165200D02*
X231544857Y-96212819D01*
X231544857Y-96212819D02*
X231449619Y-96212819D01*
X231449619Y-96212819D02*
X231306762Y-96165200D01*
X231306762Y-96165200D02*
X231211524Y-96069961D01*
X231211524Y-96069961D02*
X231163905Y-95974723D01*
X231163905Y-95974723D02*
X231116286Y-95784247D01*
X231116286Y-95784247D02*
X231116286Y-95641390D01*
X231116286Y-95641390D02*
X231163905Y-95450914D01*
X231163905Y-95450914D02*
X231211524Y-95355676D01*
X231211524Y-95355676D02*
X231306762Y-95260438D01*
X231306762Y-95260438D02*
X231449619Y-95212819D01*
X231449619Y-95212819D02*
X231544857Y-95212819D01*
X231544857Y-95212819D02*
X231687714Y-95260438D01*
X231687714Y-95260438D02*
X231735333Y-95308057D01*
X232116286Y-95308057D02*
X232163905Y-95260438D01*
X232163905Y-95260438D02*
X232259143Y-95212819D01*
X232259143Y-95212819D02*
X232497238Y-95212819D01*
X232497238Y-95212819D02*
X232592476Y-95260438D01*
X232592476Y-95260438D02*
X232640095Y-95308057D01*
X232640095Y-95308057D02*
X232687714Y-95403295D01*
X232687714Y-95403295D02*
X232687714Y-95498533D01*
X232687714Y-95498533D02*
X232640095Y-95641390D01*
X232640095Y-95641390D02*
X232068667Y-96212819D01*
X232068667Y-96212819D02*
X232687714Y-96212819D01*
X218451400Y-92528333D02*
X218481876Y-92436904D01*
X218481876Y-92436904D02*
X218481876Y-92284523D01*
X218481876Y-92284523D02*
X218451400Y-92223571D01*
X218451400Y-92223571D02*
X218420923Y-92193095D01*
X218420923Y-92193095D02*
X218359971Y-92162618D01*
X218359971Y-92162618D02*
X218299019Y-92162618D01*
X218299019Y-92162618D02*
X218238066Y-92193095D01*
X218238066Y-92193095D02*
X218207590Y-92223571D01*
X218207590Y-92223571D02*
X218177114Y-92284523D01*
X218177114Y-92284523D02*
X218146638Y-92406428D01*
X218146638Y-92406428D02*
X218116161Y-92467380D01*
X218116161Y-92467380D02*
X218085685Y-92497857D01*
X218085685Y-92497857D02*
X218024733Y-92528333D01*
X218024733Y-92528333D02*
X217963780Y-92528333D01*
X217963780Y-92528333D02*
X217902828Y-92497857D01*
X217902828Y-92497857D02*
X217872352Y-92467380D01*
X217872352Y-92467380D02*
X217841876Y-92406428D01*
X217841876Y-92406428D02*
X217841876Y-92254047D01*
X217841876Y-92254047D02*
X217872352Y-92162618D01*
X217841876Y-91949285D02*
X218481876Y-91796904D01*
X218481876Y-91796904D02*
X218024733Y-91674999D01*
X218024733Y-91674999D02*
X218481876Y-91553094D01*
X218481876Y-91553094D02*
X217841876Y-91400714D01*
X218481876Y-90821665D02*
X218481876Y-91187380D01*
X218481876Y-91004523D02*
X217841876Y-91004523D01*
X217841876Y-91004523D02*
X217933304Y-91065475D01*
X217933304Y-91065475D02*
X217994257Y-91126427D01*
X217994257Y-91126427D02*
X218024733Y-91187380D01*
D11*
X226266666Y-127132419D02*
X226266666Y-127846704D01*
X226266666Y-127846704D02*
X226219047Y-127989561D01*
X226219047Y-127989561D02*
X226123809Y-128084800D01*
X226123809Y-128084800D02*
X225980952Y-128132419D01*
X225980952Y-128132419D02*
X225885714Y-128132419D01*
X226647619Y-127132419D02*
X227266666Y-127132419D01*
X227266666Y-127132419D02*
X226933333Y-127513371D01*
X226933333Y-127513371D02*
X227076190Y-127513371D01*
X227076190Y-127513371D02*
X227171428Y-127560990D01*
X227171428Y-127560990D02*
X227219047Y-127608609D01*
X227219047Y-127608609D02*
X227266666Y-127703847D01*
X227266666Y-127703847D02*
X227266666Y-127941942D01*
X227266666Y-127941942D02*
X227219047Y-128037180D01*
X227219047Y-128037180D02*
X227171428Y-128084800D01*
X227171428Y-128084800D02*
X227076190Y-128132419D01*
X227076190Y-128132419D02*
X226790476Y-128132419D01*
X226790476Y-128132419D02*
X226695238Y-128084800D01*
X226695238Y-128084800D02*
X226647619Y-128037180D01*
D10*
X231060666Y-78956819D02*
X231060666Y-79671104D01*
X231060666Y-79671104D02*
X231013047Y-79813961D01*
X231013047Y-79813961D02*
X230917809Y-79909200D01*
X230917809Y-79909200D02*
X230774952Y-79956819D01*
X230774952Y-79956819D02*
X230679714Y-79956819D01*
X232060666Y-79956819D02*
X231489238Y-79956819D01*
X231774952Y-79956819D02*
X231774952Y-78956819D01*
X231774952Y-78956819D02*
X231679714Y-79099676D01*
X231679714Y-79099676D02*
X231584476Y-79194914D01*
X231584476Y-79194914D02*
X231489238Y-79242533D01*
X221540476Y-115604819D02*
X222207142Y-116604819D01*
X222207142Y-115604819D02*
X221540476Y-116604819D01*
X223111904Y-116604819D02*
X222540476Y-116604819D01*
X222826190Y-116604819D02*
X222826190Y-115604819D01*
X222826190Y-115604819D02*
X222730952Y-115747676D01*
X222730952Y-115747676D02*
X222635714Y-115842914D01*
X222635714Y-115842914D02*
X222540476Y-115890533D01*
X219321142Y-111103580D02*
X219273523Y-111151200D01*
X219273523Y-111151200D02*
X219130666Y-111198819D01*
X219130666Y-111198819D02*
X219035428Y-111198819D01*
X219035428Y-111198819D02*
X218892571Y-111151200D01*
X218892571Y-111151200D02*
X218797333Y-111055961D01*
X218797333Y-111055961D02*
X218749714Y-110960723D01*
X218749714Y-110960723D02*
X218702095Y-110770247D01*
X218702095Y-110770247D02*
X218702095Y-110627390D01*
X218702095Y-110627390D02*
X218749714Y-110436914D01*
X218749714Y-110436914D02*
X218797333Y-110341676D01*
X218797333Y-110341676D02*
X218892571Y-110246438D01*
X218892571Y-110246438D02*
X219035428Y-110198819D01*
X219035428Y-110198819D02*
X219130666Y-110198819D01*
X219130666Y-110198819D02*
X219273523Y-110246438D01*
X219273523Y-110246438D02*
X219321142Y-110294057D01*
X220273523Y-111198819D02*
X219702095Y-111198819D01*
X219987809Y-111198819D02*
X219987809Y-110198819D01*
X219987809Y-110198819D02*
X219892571Y-110341676D01*
X219892571Y-110341676D02*
X219797333Y-110436914D01*
X219797333Y-110436914D02*
X219702095Y-110484533D01*
X221130666Y-110198819D02*
X220940190Y-110198819D01*
X220940190Y-110198819D02*
X220844952Y-110246438D01*
X220844952Y-110246438D02*
X220797333Y-110294057D01*
X220797333Y-110294057D02*
X220702095Y-110436914D01*
X220702095Y-110436914D02*
X220654476Y-110627390D01*
X220654476Y-110627390D02*
X220654476Y-111008342D01*
X220654476Y-111008342D02*
X220702095Y-111103580D01*
X220702095Y-111103580D02*
X220749714Y-111151200D01*
X220749714Y-111151200D02*
X220844952Y-111198819D01*
X220844952Y-111198819D02*
X221035428Y-111198819D01*
X221035428Y-111198819D02*
X221130666Y-111151200D01*
X221130666Y-111151200D02*
X221178285Y-111103580D01*
X221178285Y-111103580D02*
X221225904Y-111008342D01*
X221225904Y-111008342D02*
X221225904Y-110770247D01*
X221225904Y-110770247D02*
X221178285Y-110675009D01*
X221178285Y-110675009D02*
X221130666Y-110627390D01*
X221130666Y-110627390D02*
X221035428Y-110579771D01*
X221035428Y-110579771D02*
X220844952Y-110579771D01*
X220844952Y-110579771D02*
X220749714Y-110627390D01*
X220749714Y-110627390D02*
X220702095Y-110675009D01*
X220702095Y-110675009D02*
X220654476Y-110770247D01*
X218781333Y-102308819D02*
X218448000Y-101832628D01*
X218209905Y-102308819D02*
X218209905Y-101308819D01*
X218209905Y-101308819D02*
X218590857Y-101308819D01*
X218590857Y-101308819D02*
X218686095Y-101356438D01*
X218686095Y-101356438D02*
X218733714Y-101404057D01*
X218733714Y-101404057D02*
X218781333Y-101499295D01*
X218781333Y-101499295D02*
X218781333Y-101642152D01*
X218781333Y-101642152D02*
X218733714Y-101737390D01*
X218733714Y-101737390D02*
X218686095Y-101785009D01*
X218686095Y-101785009D02*
X218590857Y-101832628D01*
X218590857Y-101832628D02*
X218209905Y-101832628D01*
X219733714Y-102308819D02*
X219162286Y-102308819D01*
X219448000Y-102308819D02*
X219448000Y-101308819D01*
X219448000Y-101308819D02*
X219352762Y-101451676D01*
X219352762Y-101451676D02*
X219257524Y-101546914D01*
X219257524Y-101546914D02*
X219162286Y-101594533D01*
X226433142Y-116278819D02*
X226099809Y-115802628D01*
X225861714Y-116278819D02*
X225861714Y-115278819D01*
X225861714Y-115278819D02*
X226242666Y-115278819D01*
X226242666Y-115278819D02*
X226337904Y-115326438D01*
X226337904Y-115326438D02*
X226385523Y-115374057D01*
X226385523Y-115374057D02*
X226433142Y-115469295D01*
X226433142Y-115469295D02*
X226433142Y-115612152D01*
X226433142Y-115612152D02*
X226385523Y-115707390D01*
X226385523Y-115707390D02*
X226337904Y-115755009D01*
X226337904Y-115755009D02*
X226242666Y-115802628D01*
X226242666Y-115802628D02*
X225861714Y-115802628D01*
X227385523Y-116278819D02*
X226814095Y-116278819D01*
X227099809Y-116278819D02*
X227099809Y-115278819D01*
X227099809Y-115278819D02*
X227004571Y-115421676D01*
X227004571Y-115421676D02*
X226909333Y-115516914D01*
X226909333Y-115516914D02*
X226814095Y-115564533D01*
X228290285Y-115278819D02*
X227814095Y-115278819D01*
X227814095Y-115278819D02*
X227766476Y-115755009D01*
X227766476Y-115755009D02*
X227814095Y-115707390D01*
X227814095Y-115707390D02*
X227909333Y-115659771D01*
X227909333Y-115659771D02*
X228147428Y-115659771D01*
X228147428Y-115659771D02*
X228242666Y-115707390D01*
X228242666Y-115707390D02*
X228290285Y-115755009D01*
X228290285Y-115755009D02*
X228337904Y-115850247D01*
X228337904Y-115850247D02*
X228337904Y-116088342D01*
X228337904Y-116088342D02*
X228290285Y-116183580D01*
X228290285Y-116183580D02*
X228242666Y-116231200D01*
X228242666Y-116231200D02*
X228147428Y-116278819D01*
X228147428Y-116278819D02*
X227909333Y-116278819D01*
X227909333Y-116278819D02*
X227814095Y-116231200D01*
X227814095Y-116231200D02*
X227766476Y-116183580D01*
X218209905Y-83766819D02*
X218209905Y-82766819D01*
X218209905Y-82766819D02*
X218448000Y-82766819D01*
X218448000Y-82766819D02*
X218590857Y-82814438D01*
X218590857Y-82814438D02*
X218686095Y-82909676D01*
X218686095Y-82909676D02*
X218733714Y-83004914D01*
X218733714Y-83004914D02*
X218781333Y-83195390D01*
X218781333Y-83195390D02*
X218781333Y-83338247D01*
X218781333Y-83338247D02*
X218733714Y-83528723D01*
X218733714Y-83528723D02*
X218686095Y-83623961D01*
X218686095Y-83623961D02*
X218590857Y-83719200D01*
X218590857Y-83719200D02*
X218448000Y-83766819D01*
X218448000Y-83766819D02*
X218209905Y-83766819D01*
X219162286Y-82862057D02*
X219209905Y-82814438D01*
X219209905Y-82814438D02*
X219305143Y-82766819D01*
X219305143Y-82766819D02*
X219543238Y-82766819D01*
X219543238Y-82766819D02*
X219638476Y-82814438D01*
X219638476Y-82814438D02*
X219686095Y-82862057D01*
X219686095Y-82862057D02*
X219733714Y-82957295D01*
X219733714Y-82957295D02*
X219733714Y-83052533D01*
X219733714Y-83052533D02*
X219686095Y-83195390D01*
X219686095Y-83195390D02*
X219114667Y-83766819D01*
X219114667Y-83766819D02*
X219733714Y-83766819D01*
D12*
X221192333Y-85964404D02*
X221109000Y-85845357D01*
X221049476Y-85964404D02*
X221049476Y-85714404D01*
X221049476Y-85714404D02*
X221144714Y-85714404D01*
X221144714Y-85714404D02*
X221168524Y-85726309D01*
X221168524Y-85726309D02*
X221180429Y-85738214D01*
X221180429Y-85738214D02*
X221192333Y-85762023D01*
X221192333Y-85762023D02*
X221192333Y-85797738D01*
X221192333Y-85797738D02*
X221180429Y-85821547D01*
X221180429Y-85821547D02*
X221168524Y-85833452D01*
X221168524Y-85833452D02*
X221144714Y-85845357D01*
X221144714Y-85845357D02*
X221049476Y-85845357D01*
X221406619Y-85714404D02*
X221359000Y-85714404D01*
X221359000Y-85714404D02*
X221335191Y-85726309D01*
X221335191Y-85726309D02*
X221323286Y-85738214D01*
X221323286Y-85738214D02*
X221299476Y-85773928D01*
X221299476Y-85773928D02*
X221287572Y-85821547D01*
X221287572Y-85821547D02*
X221287572Y-85916785D01*
X221287572Y-85916785D02*
X221299476Y-85940595D01*
X221299476Y-85940595D02*
X221311381Y-85952500D01*
X221311381Y-85952500D02*
X221335191Y-85964404D01*
X221335191Y-85964404D02*
X221382810Y-85964404D01*
X221382810Y-85964404D02*
X221406619Y-85952500D01*
X221406619Y-85952500D02*
X221418524Y-85940595D01*
X221418524Y-85940595D02*
X221430429Y-85916785D01*
X221430429Y-85916785D02*
X221430429Y-85857261D01*
X221430429Y-85857261D02*
X221418524Y-85833452D01*
X221418524Y-85833452D02*
X221406619Y-85821547D01*
X221406619Y-85821547D02*
X221382810Y-85809642D01*
X221382810Y-85809642D02*
X221335191Y-85809642D01*
X221335191Y-85809642D02*
X221311381Y-85821547D01*
X221311381Y-85821547D02*
X221299476Y-85833452D01*
X221299476Y-85833452D02*
X221287572Y-85857261D01*
%TO.C,J2*%
D11*
X235175000Y-78940000D02*
X237785000Y-78940000D01*
X237785000Y-129310000D01*
X235175000Y-129310000D01*
X235175000Y-78940000D01*
D13*
%TO.C,D1*%
X231971300Y-84961900D02*
X231971300Y-88111500D01*
X234028700Y-88111500D02*
X234028700Y-84961900D01*
D14*
%TO.C,R12*%
X225610000Y-97346359D02*
X225610000Y-97653641D01*
X226370000Y-97346359D02*
X226370000Y-97653641D01*
%TO.C,J4*%
D11*
X216825000Y-78550000D02*
X214215000Y-78550000D01*
X214215000Y-128920000D01*
X216825000Y-128920000D01*
X216825000Y-78550000D01*
D13*
%TO.C,U3*%
X222867800Y-102867800D02*
X222867800Y-103478360D01*
X222867800Y-109521640D02*
X222867800Y-110132200D01*
X222867800Y-110132200D02*
X223478360Y-110132200D01*
X223478360Y-102867800D02*
X222867800Y-102867800D01*
X229521640Y-110132200D02*
X230132200Y-110132200D01*
X230132200Y-102867800D02*
X229521640Y-102867800D01*
X230132200Y-103478360D02*
X230132200Y-102867800D01*
X230132200Y-110132200D02*
X230132200Y-109521640D01*
D15*
G36*
X222436000Y-107690501D02*
G01*
X222182000Y-107690501D01*
X222182000Y-107309501D01*
X222436000Y-107309501D01*
X222436000Y-107690501D01*
G37*
G36*
X226090501Y-110818000D02*
G01*
X225709501Y-110818000D01*
X225709501Y-110564000D01*
X226090501Y-110564000D01*
X226090501Y-110818000D01*
G37*
G36*
X226490500Y-102436000D02*
G01*
X226109500Y-102436000D01*
X226109500Y-102182000D01*
X226490500Y-102182000D01*
X226490500Y-102436000D01*
G37*
G36*
X230818000Y-104890501D02*
G01*
X230564000Y-104890501D01*
X230564000Y-104509501D01*
X230818000Y-104509501D01*
X230818000Y-104890501D01*
G37*
G36*
X230818000Y-108890501D02*
G01*
X230564000Y-108890501D01*
X230564000Y-108509501D01*
X230818000Y-108509501D01*
X230818000Y-108890501D01*
G37*
D14*
%TO.C,R7*%
X233620000Y-97153641D02*
X233620000Y-96846359D01*
X234380000Y-97153641D02*
X234380000Y-96846359D01*
%TO.C,R5*%
X229836359Y-86120000D02*
X230143641Y-86120000D01*
X229836359Y-86880000D02*
X230143641Y-86880000D01*
%TO.C,R9*%
X228977500Y-99937742D02*
X228977500Y-100412258D01*
X230022500Y-99937742D02*
X230022500Y-100412258D01*
D16*
%TO.C,U2*%
X231425000Y-93500000D02*
G75*
G02*
X231225000Y-93500000I-100000J0D01*
G01*
X231225000Y-93500000D02*
G75*
G02*
X231425000Y-93500000I100000J0D01*
G01*
D14*
%TO.C,C8*%
X223140000Y-100372164D02*
X223140000Y-100587836D01*
X223860000Y-100372164D02*
X223860000Y-100587836D01*
%TO.C,R10*%
X231620000Y-102143641D02*
X231620000Y-101836359D01*
X232380000Y-102143641D02*
X232380000Y-101836359D01*
%TO.C,R11*%
X224120000Y-97356359D02*
X224120000Y-97663641D01*
X224880000Y-97356359D02*
X224880000Y-97663641D01*
%TO.C,R2*%
X218120000Y-97143641D02*
X218120000Y-96836359D01*
X218880000Y-97143641D02*
X218880000Y-96836359D01*
%TO.C,R3*%
X232836359Y-106620000D02*
X233143641Y-106620000D01*
X232836359Y-107380000D02*
X233143641Y-107380000D01*
%TO.C,Q1*%
X232100000Y-98850000D02*
X232100000Y-100150000D01*
X233900000Y-98850000D02*
X233900000Y-100150000D01*
D10*
X232565000Y-100750000D02*
G75*
G02*
X232415000Y-100750000I-75000J0D01*
G01*
X232415000Y-100750000D02*
G75*
G02*
X232565000Y-100750000I75000J0D01*
G01*
D14*
%TO.C,C9*%
X226660000Y-100412164D02*
X226660000Y-100627836D01*
X227380000Y-100412164D02*
X227380000Y-100627836D01*
%TO.C,R13*%
X224836359Y-86620000D02*
X225143641Y-86620000D01*
X224836359Y-87380000D02*
X225143641Y-87380000D01*
%TO.C,R4*%
X232836359Y-108120000D02*
X233143641Y-108120000D01*
X232836359Y-108880000D02*
X233143641Y-108880000D01*
%TO.C,R14*%
X223356359Y-114120000D02*
X223663641Y-114120000D01*
X223356359Y-114880000D02*
X223663641Y-114880000D01*
%TO.C,C1*%
X228788748Y-88765000D02*
X229311252Y-88765000D01*
X228788748Y-90235000D02*
X229311252Y-90235000D01*
D13*
%TO.C,U1*%
X219818900Y-98041455D02*
X219818900Y-99854145D01*
X222181100Y-99854145D02*
X222181100Y-98041455D01*
X220351600Y-101352800D02*
G75*
G02*
X220148400Y-101352800I-101600J0D01*
G01*
X220148400Y-101352800D02*
G75*
G02*
X220351600Y-101352800I101600J0D01*
G01*
D14*
%TO.C,C5*%
X228788748Y-94765000D02*
X229311252Y-94765000D01*
X228788748Y-96235000D02*
X229311252Y-96235000D01*
%TO.C,R8*%
X233120000Y-102163641D02*
X233120000Y-101856359D01*
X233880000Y-102163641D02*
X233880000Y-101856359D01*
%TO.C,C4*%
X219912164Y-102640000D02*
X220127836Y-102640000D01*
X219912164Y-103360000D02*
X220127836Y-103360000D01*
D16*
%TO.C,SW1*%
X219300000Y-92675000D02*
X219300000Y-90175000D01*
X220600000Y-89275000D02*
X221400000Y-89275000D01*
X220600000Y-93675000D02*
X221400000Y-93675000D01*
X222700000Y-92675000D02*
X222700000Y-90275000D01*
X219900000Y-92575000D02*
G75*
G02*
X219700000Y-92575000I-100000J0D01*
G01*
X219700000Y-92575000D02*
G75*
G02*
X219900000Y-92575000I100000J0D01*
G01*
%TO.C,J3*%
D11*
X223100000Y-126675000D02*
X230100000Y-126675000D01*
X230100000Y-129175000D01*
X223100000Y-129175000D01*
X223100000Y-126675000D01*
D17*
%TO.C,J1*%
X222250000Y-79310000D02*
X222250000Y-81160000D01*
X222250000Y-79310000D02*
X222480000Y-79310000D01*
X229750000Y-79310000D02*
X229520000Y-79310000D01*
X229750000Y-79310000D02*
X229750000Y-81160000D01*
D16*
X224800000Y-78060000D02*
G75*
G02*
X224600000Y-78060000I-100000J0D01*
G01*
X224600000Y-78060000D02*
G75*
G02*
X224800000Y-78060000I100000J0D01*
G01*
D14*
%TO.C,X1*%
X220750000Y-117050000D02*
X220750000Y-119650000D01*
X220750000Y-119650000D02*
X223950000Y-119650000D01*
%TO.C,R1*%
X218120000Y-100143641D02*
X218120000Y-99836359D01*
X218880000Y-100143641D02*
X218880000Y-99836359D01*
%TO.C,R15*%
X224356359Y-115620000D02*
X224663641Y-115620000D01*
X224356359Y-116380000D02*
X224663641Y-116380000D01*
D11*
%TO.C,D2*%
X218475000Y-85000000D02*
G75*
G02*
X218375000Y-85000000I-50000J0D01*
G01*
X218375000Y-85000000D02*
G75*
G02*
X218475000Y-85000000I50000J0D01*
G01*
D14*
%TO.C,R6*%
X221336359Y-86620000D02*
X221643641Y-86620000D01*
X221336359Y-87380000D02*
X221643641Y-87380000D01*
%TO.C,C6*%
X225380000Y-100392164D02*
X225380000Y-100607836D01*
X224660000Y-100392164D02*
X224660000Y-100607836D01*
%TD*%
D18*
X236500000Y-128080000D03*
X236500000Y-125540000D03*
X236500000Y-123000000D03*
X236500000Y-120460000D03*
X236500000Y-117920000D03*
X236500000Y-115380000D03*
X236500000Y-112840000D03*
X236500000Y-110300000D03*
X236500000Y-107760000D03*
X236500000Y-105220000D03*
X236500000Y-102680000D03*
X236500000Y-100140000D03*
X236500000Y-97600000D03*
X236500000Y-95060000D03*
X236500000Y-92520000D03*
X236500000Y-89980000D03*
X236500000Y-87440000D03*
X236500000Y-84900000D03*
X236500000Y-82360000D03*
X236500000Y-79820000D03*
X215500000Y-79780000D03*
X215500000Y-82320000D03*
X215500000Y-84860000D03*
X215500000Y-87400000D03*
X215500000Y-89940000D03*
X215500000Y-92480000D03*
X215500000Y-95020000D03*
X215500000Y-97560000D03*
X215500000Y-100100000D03*
X215500000Y-102640000D03*
X215500000Y-105180000D03*
X215500000Y-107720000D03*
X215500000Y-110260000D03*
X215500000Y-112800000D03*
X215500000Y-115340000D03*
X215500000Y-117880000D03*
X215500000Y-120420000D03*
X215500000Y-122960000D03*
X215500000Y-125500000D03*
X215500000Y-128040000D03*
X223960000Y-128000000D03*
X226500000Y-128000000D03*
X229040000Y-128000000D03*
M02*
