M48
; DRILL file {KiCad 8.0.7} date 2025-02-02T23:02:37+0530
; FORMAT={-:-/ absolute / metric / decimal}
; #@! TF.CreationDate,2025-02-02T23:02:37+05:30
; #@! TF.GenerationSoftware,Kicad,Pcbnew,8.0.7
; #@! TF.FileFunction,Plated,1,2,PTH
FMAT,2
METRIC
; #@! TA.AperFunction,Plated,PTH,ViaDrill
T1C0.300
; #@! TA.AperFunction,Plated,PTH,ComponentDrill
T2C0.762
%
G90
G05
T1
X215.138Y-106.426
X215.964Y-100.838
X217.332Y-104.902
X218.371Y-98.651
X218.4Y-107.749
X219.04Y-108.9
X219.54Y-100.311
X219.672Y-110.419
X219.802Y-104.772
X220.75Y-108.562
X221.41Y-105.313
X221.469Y-104.095
X221.502Y-107.321
X221.713Y-95.335
X221.811Y-87.94
X221.964Y-96.266
X222.25Y-106.373
X222.507Y-100.42
X222.564Y-95.564
X222.863Y-97.264
X222.925Y-113.091
X223.264Y-96.164
X223.96Y-120.398
X223.996Y-107.321
X224.003Y-104.003
X224.077Y-111.951
X224.282Y-105.664
X224.322Y-106.59
X224.7Y-80.7
X224.81Y-114.385
X224.835Y-92.789
X224.835Y-94.219
X224.89Y-108.985
X224.961Y-113.584
X225.044Y-104.003
X225.283Y-98.791
X225.288Y-88.334
X225.305Y-102.201
X225.806Y-101.346
X225.871Y-108.977
X226.09Y-104.16
X226.175Y-102.191
X226.576Y-88.514
X226.7Y-108.984
X226.795Y-114.554
X226.826Y-98.01
X226.914Y-106.5
X227.048Y-89.195
X227.048Y-94.778
X227.104Y-99.564
X227.381Y-116.129
X227.7Y-103.997
X227.854Y-99.844
X227.995Y-108.997
X228.622Y-111.693
X228.854Y-107.188
X228.957Y-105.306
X228.993Y-104.002
X228.997Y-108.996
X229.137Y-97.956
X229.363Y-101.904
X229.375Y-84.9
X229.663Y-90.742
X230.225Y-94.152
X230.482Y-102.742
X230.5Y-87.44
X230.513Y-101.862
X230.747Y-105.432
X231.049Y-100.675
X231.256Y-112.55
X231.302Y-106.905
X231.924Y-100.702
X231.981Y-108.1
X232.714Y-97.116
X232.829Y-94.778
X232.916Y-105.241
X234.721Y-106.412
X235.356Y-105.827
X235.458Y-100.838
X235.712Y-104.158
X236.473Y-101.402
X236.474Y-96.266
X236.474Y-114.3
T2
X215.5Y-79.78
X215.5Y-82.32
X215.5Y-84.86
X215.5Y-87.4
X215.5Y-89.94
X215.5Y-92.48
X215.5Y-95.02
X215.5Y-97.56
X215.5Y-100.1
X215.5Y-102.64
X215.5Y-105.18
X215.5Y-107.72
X215.5Y-110.26
X215.5Y-112.8
X215.5Y-115.34
X215.5Y-117.88
X215.5Y-120.42
X215.5Y-122.96
X215.5Y-125.5
X215.5Y-128.04
X223.96Y-128.0
X226.5Y-128.0
X229.04Y-128.0
X236.5Y-79.82
X236.5Y-82.36
X236.5Y-84.9
X236.5Y-87.44
X236.5Y-89.98
X236.5Y-92.52
X236.5Y-95.06
X236.5Y-97.6
X236.5Y-100.14
X236.5Y-102.68
X236.5Y-105.22
X236.5Y-107.76
X236.5Y-110.3
X236.5Y-112.84
X236.5Y-115.38
X236.5Y-117.92
X236.5Y-120.46
X236.5Y-123.0
X236.5Y-125.54
X236.5Y-128.08
M30
