%TF.GenerationSoftware,KiCad,Pcbnew,8.0.7*%
%TF.CreationDate,2025-02-02T23:02:37+05:30*%
%TF.ProjectId,my-template,6d792d74-656d-4706-9c61-74652e6b6963,rev?*%
%TF.SameCoordinates,Original*%
%TF.FileFunction,Copper,L1,Top*%
%TF.FilePolarity,Positive*%
%FSLAX46Y46*%
G04 Gerber Fmt 4.6, Leading zero omitted, Abs format (unit mm)*
G04 Created by KiCad (PCBNEW 8.0.7) date 2025-02-02 23:02:37*
%MOMM*%
%LPD*%
G01*
G04 APERTURE LIST*
G04 Aperture macros list*
%AMRoundRect*
0 Rectangle with rounded corners*
0 $1 Rounding radius*
0 $2 $3 $4 $5 $6 $7 $8 $9 X,Y pos of 4 corners*
0 Add a 4 corners polygon primitive as box body*
4,1,4,$2,$3,$4,$5,$6,$7,$8,$9,$2,$3,0*
0 Add four circle primitives for the rounded corners*
1,1,$1+$1,$2,$3*
1,1,$1+$1,$4,$5*
1,1,$1+$1,$6,$7*
1,1,$1+$1,$8,$9*
0 Add four rect primitives between the rounded corners*
20,1,$1+$1,$2,$3,$4,$5,0*
20,1,$1+$1,$4,$5,$6,$7,0*
20,1,$1+$1,$6,$7,$8,$9,0*
20,1,$1+$1,$8,$9,$2,$3,0*%
G04 Aperture macros list end*
%TA.AperFunction,ComponentPad*%
%ADD10C,1.524000*%
%TD*%
%TA.AperFunction,SMDPad,CuDef*%
%ADD11RoundRect,0.147500X0.172500X-0.147500X0.172500X0.147500X-0.172500X0.147500X-0.172500X-0.147500X0*%
%TD*%
%TA.AperFunction,SMDPad,CuDef*%
%ADD12R,1.092200X1.143000*%
%TD*%
%TA.AperFunction,SMDPad,CuDef*%
%ADD13RoundRect,0.135000X-0.185000X0.135000X-0.185000X-0.135000X0.185000X-0.135000X0.185000X0.135000X0*%
%TD*%
%TA.AperFunction,SMDPad,CuDef*%
%ADD14R,0.812800X0.177800*%
%TD*%
%TA.AperFunction,SMDPad,CuDef*%
%ADD15R,0.177800X0.812800*%
%TD*%
%TA.AperFunction,SMDPad,CuDef*%
%ADD16R,3.200400X3.200400*%
%TD*%
%TA.AperFunction,SMDPad,CuDef*%
%ADD17RoundRect,0.135000X0.185000X-0.135000X0.185000X0.135000X-0.185000X0.135000X-0.185000X-0.135000X0*%
%TD*%
%TA.AperFunction,SMDPad,CuDef*%
%ADD18RoundRect,0.135000X-0.135000X-0.185000X0.135000X-0.185000X0.135000X0.185000X-0.135000X0.185000X0*%
%TD*%
%TA.AperFunction,SMDPad,CuDef*%
%ADD19RoundRect,0.200000X-0.275000X0.200000X-0.275000X-0.200000X0.275000X-0.200000X0.275000X0.200000X0*%
%TD*%
%TA.AperFunction,SMDPad,CuDef*%
%ADD20R,0.850000X0.300000*%
%TD*%
%TA.AperFunction,SMDPad,CuDef*%
%ADD21R,1.200000X2.000000*%
%TD*%
%TA.AperFunction,SMDPad,CuDef*%
%ADD22RoundRect,0.100000X-0.130000X-0.100000X0.130000X-0.100000X0.130000X0.100000X-0.130000X0.100000X0*%
%TD*%
%TA.AperFunction,SMDPad,CuDef*%
%ADD23RoundRect,0.100000X0.130000X0.100000X-0.130000X0.100000X-0.130000X-0.100000X0.130000X-0.100000X0*%
%TD*%
%TA.AperFunction,SMDPad,CuDef*%
%ADD24RoundRect,0.140000X-0.170000X0.140000X-0.170000X-0.140000X0.170000X-0.140000X0.170000X0.140000X0*%
%TD*%
%TA.AperFunction,SMDPad,CuDef*%
%ADD25RoundRect,0.100000X0.100000X-0.130000X0.100000X0.130000X-0.100000X0.130000X-0.100000X-0.130000X0*%
%TD*%
%TA.AperFunction,SMDPad,CuDef*%
%ADD26RoundRect,0.100000X-0.100000X0.130000X-0.100000X-0.130000X0.100000X-0.130000X0.100000X0.130000X0*%
%TD*%
%TA.AperFunction,SMDPad,CuDef*%
%ADD27RoundRect,0.100000X-0.100000X0.155000X-0.100000X-0.155000X0.100000X-0.155000X0.100000X0.155000X0*%
%TD*%
%TA.AperFunction,SMDPad,CuDef*%
%ADD28RoundRect,0.250000X-0.250000X-0.475000X0.250000X-0.475000X0.250000X0.475000X-0.250000X0.475000X0*%
%TD*%
%TA.AperFunction,SMDPad,CuDef*%
%ADD29R,0.254000X0.812800*%
%TD*%
%TA.AperFunction,SMDPad,CuDef*%
%ADD30R,1.651000X0.254000*%
%TD*%
%TA.AperFunction,SMDPad,CuDef*%
%ADD31RoundRect,0.140000X-0.140000X-0.170000X0.140000X-0.170000X0.140000X0.170000X-0.140000X0.170000X0*%
%TD*%
%TA.AperFunction,SMDPad,CuDef*%
%ADD32R,0.650000X1.050000*%
%TD*%
%TA.AperFunction,SMDPad,CuDef*%
%ADD33R,0.450000X1.380000*%
%TD*%
%TA.AperFunction,SMDPad,CuDef*%
%ADD34R,1.425000X1.550000*%
%TD*%
%TA.AperFunction,SMDPad,CuDef*%
%ADD35R,1.650000X1.300000*%
%TD*%
%TA.AperFunction,SMDPad,CuDef*%
%ADD36R,1.800000X1.900000*%
%TD*%
%TA.AperFunction,SMDPad,CuDef*%
%ADD37R,1.000000X1.900000*%
%TD*%
%TA.AperFunction,SMDPad,CuDef*%
%ADD38R,1.100000X0.900000*%
%TD*%
%TA.AperFunction,SMDPad,CuDef*%
%ADD39RoundRect,0.147500X-0.147500X-0.172500X0.147500X-0.172500X0.147500X0.172500X-0.147500X0.172500X0*%
%TD*%
%TA.AperFunction,ViaPad*%
%ADD40C,0.600000*%
%TD*%
%TA.AperFunction,Conductor*%
%ADD41C,0.200000*%
%TD*%
%TA.AperFunction,Conductor*%
%ADD42C,0.177600*%
%TD*%
%ADD43C,0.300000*%
%ADD44C,0.350000*%
G04 APERTURE END LIST*
D10*
%TO.P,J2,1,Pin_1*%
%TO.N,/GPIO16*%
X236500000Y-128080000D03*
%TO.P,J2,2,Pin_2*%
%TO.N,/GPIO17*%
X236500000Y-125540000D03*
%TO.P,J2,3,Pin_3*%
%TO.N,GND*%
X236500000Y-123000000D03*
%TO.P,J2,4,Pin_4*%
%TO.N,/GPIO18*%
X236500000Y-120460000D03*
%TO.P,J2,5,Pin_5*%
%TO.N,/GPIO19*%
X236500000Y-117920000D03*
%TO.P,J2,6,Pin_6*%
%TO.N,/GPIO20*%
X236500000Y-115380000D03*
%TO.P,J2,7,Pin_7*%
%TO.N,/GPIO21*%
X236500000Y-112840000D03*
%TO.P,J2,8,Pin_8*%
%TO.N,GND*%
X236500000Y-110300000D03*
%TO.P,J2,9,Pin_9*%
%TO.N,/GPIO22*%
X236500000Y-107760000D03*
%TO.P,J2,10,Pin_10*%
%TO.N,/RUN*%
X236500000Y-105220000D03*
%TO.P,J2,11,Pin_11*%
%TO.N,/GPIO26_ADC0*%
X236500000Y-102680000D03*
%TO.P,J2,12,Pin_12*%
%TO.N,/GPIO27_ADC1*%
X236500000Y-100140000D03*
%TO.P,J2,13,Pin_13*%
%TO.N,GND*%
X236500000Y-97600000D03*
%TO.P,J2,14,Pin_14*%
%TO.N,/GPIO28_ADC2*%
X236500000Y-95060000D03*
%TO.P,J2,15,Pin_15*%
%TO.N,/ADC_VREF*%
X236500000Y-92520000D03*
%TO.P,J2,16,Pin_16*%
%TO.N,+3V3*%
X236500000Y-89980000D03*
%TO.P,J2,17,Pin_17*%
%TO.N,/3V3_EN*%
X236500000Y-87440000D03*
%TO.P,J2,18,Pin_18*%
%TO.N,GND*%
X236500000Y-84900000D03*
%TO.P,J2,19,Pin_19*%
%TO.N,VSYS*%
X236500000Y-82360000D03*
%TO.P,J2,20,Pin_20*%
%TO.N,VBUS*%
X236500000Y-79820000D03*
%TD*%
D11*
%TO.P,L1,1,1*%
%TO.N,Net-(U2-LX1)*%
X233015000Y-90970000D03*
%TO.P,L1,2,2*%
%TO.N,Net-(U2-LX2)*%
X233015000Y-90000000D03*
%TD*%
D12*
%TO.P,D1,1*%
%TO.N,VSYS*%
X233000000Y-88073400D03*
%TO.P,D1,2*%
%TO.N,VBUS*%
X233000000Y-85000000D03*
%TD*%
D13*
%TO.P,R12,1*%
%TO.N,/USB_DM*%
X225990000Y-96990000D03*
%TO.P,R12,2*%
%TO.N,/USB_DMX*%
X225990000Y-98010000D03*
%TD*%
D10*
%TO.P,J4,1,Pin_1*%
%TO.N,/GPIO0*%
X215500000Y-79780000D03*
%TO.P,J4,2,Pin_2*%
%TO.N,/GPIO1*%
X215500000Y-82320000D03*
%TO.P,J4,3,Pin_3*%
%TO.N,GND*%
X215500000Y-84860000D03*
%TO.P,J4,4,Pin_4*%
%TO.N,/GPIO2*%
X215500000Y-87400000D03*
%TO.P,J4,5,Pin_5*%
%TO.N,/GPIO3*%
X215500000Y-89940000D03*
%TO.P,J4,6,Pin_6*%
%TO.N,/GPIO4*%
X215500000Y-92480000D03*
%TO.P,J4,7,Pin_7*%
%TO.N,/GPIO5*%
X215500000Y-95020000D03*
%TO.P,J4,8,Pin_8*%
%TO.N,GND*%
X215500000Y-97560000D03*
%TO.P,J4,9,Pin_9*%
%TO.N,/GPIO6*%
X215500000Y-100100000D03*
%TO.P,J4,10,Pin_10*%
%TO.N,/GPIO7*%
X215500000Y-102640000D03*
%TO.P,J4,11,Pin_11*%
%TO.N,/GPIO8*%
X215500000Y-105180000D03*
%TO.P,J4,12,Pin_12*%
%TO.N,/GPIO9*%
X215500000Y-107720000D03*
%TO.P,J4,13,Pin_13*%
%TO.N,GND*%
X215500000Y-110260000D03*
%TO.P,J4,14,Pin_14*%
%TO.N,/GPIO10*%
X215500000Y-112800000D03*
%TO.P,J4,15,Pin_15*%
%TO.N,/GPOI11*%
X215500000Y-115340000D03*
%TO.P,J4,16,Pin_16*%
%TO.N,/GPIO12*%
X215500000Y-117880000D03*
%TO.P,J4,17,Pin_17*%
%TO.N,/GPIO13*%
X215500000Y-120420000D03*
%TO.P,J4,18,Pin_18*%
%TO.N,GND*%
X215500000Y-122960000D03*
%TO.P,J4,19,Pin_19*%
%TO.N,/GPIO14*%
X215500000Y-125500000D03*
%TO.P,J4,20,Pin_20*%
%TO.N,/GPIO15*%
X215500000Y-128040000D03*
%TD*%
D14*
%TO.P,U3,1,IOVDD*%
%TO.N,+3V3*%
X223096400Y-103900000D03*
%TO.P,U3,2,GPIO0*%
%TO.N,/GPIO0*%
X223096400Y-104299999D03*
%TO.P,U3,3,GPIO1*%
%TO.N,/GPIO1*%
X223096400Y-104700001D03*
%TO.P,U3,4,GPIO2*%
%TO.N,/GPIO2*%
X223096400Y-105100000D03*
%TO.P,U3,5,GPIO3*%
%TO.N,/GPIO3*%
X223096400Y-105499999D03*
%TO.P,U3,6,GPIO4*%
%TO.N,/GPIO4*%
X223096400Y-105900001D03*
%TO.P,U3,7,GPIO5*%
%TO.N,/GPIO5*%
X223096400Y-106300000D03*
%TO.P,U3,8,GPIO6*%
%TO.N,/GPIO6*%
X223096400Y-106700000D03*
%TO.P,U3,9,GPIO7*%
%TO.N,/GPIO7*%
X223096400Y-107099999D03*
%TO.P,U3,10,IOVDD*%
%TO.N,+3V3*%
X223096400Y-107500001D03*
%TO.P,U3,11,GPIO8*%
%TO.N,/GPIO8*%
X223096400Y-107900000D03*
%TO.P,U3,12,GPIO9*%
%TO.N,/GPIO9*%
X223096400Y-108299999D03*
%TO.P,U3,13,GPIO10*%
%TO.N,/GPIO10*%
X223096400Y-108700001D03*
%TO.P,U3,14,GPIO11*%
%TO.N,/GPOI11*%
X223096400Y-109100000D03*
D15*
%TO.P,U3,15,GPIO12*%
%TO.N,/GPIO12*%
X223900000Y-109903600D03*
%TO.P,U3,16,GPIO13*%
%TO.N,/GPIO13*%
X224299999Y-109903600D03*
%TO.P,U3,17,GPIO14*%
%TO.N,/GPIO14*%
X224700001Y-109903600D03*
%TO.P,U3,18,GPIO15*%
%TO.N,/GPIO15*%
X225100000Y-109903600D03*
%TO.P,U3,19,TESTEN*%
%TO.N,GND*%
X225499999Y-109903600D03*
%TO.P,U3,20,XIN*%
%TO.N,/XIN*%
X225900001Y-109903600D03*
%TO.P,U3,21,XOUT*%
%TO.N,/XOUT*%
X226300000Y-109903600D03*
%TO.P,U3,22,IOVDD*%
%TO.N,+3V3*%
X226700000Y-109903600D03*
%TO.P,U3,23,DVDD*%
%TO.N,+1V1*%
X227099999Y-109903600D03*
%TO.P,U3,24,SWCLK*%
%TO.N,/SWCLK*%
X227500001Y-109903600D03*
%TO.P,U3,25,SWDIO*%
%TO.N,/SWDIO*%
X227900000Y-109903600D03*
%TO.P,U3,26,RUN*%
%TO.N,/RUN*%
X228299999Y-109903600D03*
%TO.P,U3,27,GPIO16*%
%TO.N,/GPIO16*%
X228700001Y-109903600D03*
%TO.P,U3,28,GPIO17*%
%TO.N,/GPIO17*%
X229100000Y-109903600D03*
D14*
%TO.P,U3,29,GPIO18*%
%TO.N,/GPIO18*%
X229903600Y-109100000D03*
%TO.P,U3,30,GPIO19*%
%TO.N,/GPIO19*%
X229903600Y-108700001D03*
%TO.P,U3,31,GPIO20*%
%TO.N,/GPIO20*%
X229903600Y-108299999D03*
%TO.P,U3,32,GPIO21*%
%TO.N,/GPIO21*%
X229903600Y-107900000D03*
%TO.P,U3,33,IOVDD*%
%TO.N,+3V3*%
X229903600Y-107500001D03*
%TO.P,U3,34,GPIO22*%
%TO.N,/GPIO22*%
X229903600Y-107099999D03*
%TO.P,U3,35,GPIO23*%
%TO.N,/GPIO23*%
X229903600Y-106700000D03*
%TO.P,U3,36,GPIO24*%
%TO.N,/GPIO24*%
X229903600Y-106300000D03*
%TO.P,U3,37,GPIO25*%
%TO.N,/GPIO25*%
X229903600Y-105900001D03*
%TO.P,U3,38,GPIO26/ADC0*%
%TO.N,/GPIO26_ADC0*%
X229903600Y-105499999D03*
%TO.P,U3,39,GPIO27/ADC1*%
%TO.N,/GPIO27_ADC1*%
X229903600Y-105100000D03*
%TO.P,U3,40,GPIO28/ADC2*%
%TO.N,/GPIO28_ADC2*%
X229903600Y-104700001D03*
%TO.P,U3,41,GPIO29/ADC3*%
%TO.N,/GPIO29_ADC3*%
X229903600Y-104299999D03*
%TO.P,U3,42,IOVDD*%
%TO.N,+3V3*%
X229903600Y-103900000D03*
D15*
%TO.P,U3,43,ADC_AVDD*%
%TO.N,/ADC_AVDD*%
X229100000Y-103096400D03*
%TO.P,U3,44,VREG_VIN*%
%TO.N,+3V3*%
X228700001Y-103096400D03*
%TO.P,U3,45,VREG_VOUT*%
%TO.N,+1V1*%
X228299999Y-103096400D03*
%TO.P,U3,46,USB_DM*%
%TO.N,/USB_DMX*%
X227900000Y-103096400D03*
%TO.P,U3,47,USB_DP*%
%TO.N,/USB_DPX*%
X227500001Y-103096400D03*
%TO.P,U3,48,USB_VDD*%
%TO.N,+3V3*%
X227099999Y-103096400D03*
%TO.P,U3,49,IOVDD*%
X226700000Y-103096400D03*
%TO.P,U3,50,DVDD*%
%TO.N,+1V1*%
X226300000Y-103096400D03*
%TO.P,U3,51,SQPI_SD3*%
%TO.N,/SQPI_SD3*%
X225900001Y-103096400D03*
%TO.P,U3,52,SQPI_SCLK*%
%TO.N,/SQPI_SCLK*%
X225499999Y-103096400D03*
%TO.P,U3,53,SQPI_SD0*%
%TO.N,/SQPI_SD0*%
X225100000Y-103096400D03*
%TO.P,U3,54,SQPI_SD2*%
%TO.N,/SQPI_SD2*%
X224700001Y-103096400D03*
%TO.P,U3,55,SQPI_SD1*%
%TO.N,/SQPI_SD1*%
X224299999Y-103096400D03*
%TO.P,U3,56,SQPI_SS_N*%
%TO.N,/SQPI_SS_N*%
X223900000Y-103096400D03*
D16*
%TO.P,U3,57,GND*%
%TO.N,GND*%
X226500000Y-106500000D03*
%TD*%
D17*
%TO.P,R7,1*%
%TO.N,Net-(Q1-D)*%
X234000000Y-97510000D03*
%TO.P,R7,2*%
%TO.N,VSYS*%
X234000000Y-96490000D03*
%TD*%
D18*
%TO.P,R5,1*%
%TO.N,VSYS*%
X229480000Y-86500000D03*
%TO.P,R5,2*%
%TO.N,/3V3_EN*%
X230500000Y-86500000D03*
%TD*%
D19*
%TO.P,R9,1*%
%TO.N,/ADC_VREF*%
X229500000Y-99350000D03*
%TO.P,R9,2*%
%TO.N,+3V3*%
X229500000Y-101000000D03*
%TD*%
D20*
%TO.P,U2,1,VOUT*%
%TO.N,+3V3*%
X230225000Y-93500000D03*
%TO.P,U2,2,LX2*%
%TO.N,Net-(U2-LX2)*%
X230225000Y-93000000D03*
%TO.P,U2,3,GND*%
%TO.N,GND*%
X230225000Y-92500000D03*
%TO.P,U2,4,LX1*%
%TO.N,Net-(U2-LX1)*%
X230225000Y-92000000D03*
%TO.P,U2,5,VIN*%
%TO.N,VSYS*%
X230225000Y-91500000D03*
%TO.P,U2,6,EN*%
%TO.N,/3V3_EN*%
X227775000Y-91500000D03*
%TO.P,U2,7,PS*%
%TO.N,/GPIO23*%
X227775000Y-92000000D03*
%TO.P,U2,8,VINA*%
%TO.N,VSYS*%
X227775000Y-92500000D03*
%TO.P,U2,9,GND__1*%
%TO.N,GND*%
X227775000Y-93000000D03*
%TO.P,U2,10,FB*%
%TO.N,+3V3*%
X227775000Y-93500000D03*
D21*
%TO.P,U2,11,EXP*%
%TO.N,GND*%
X229000000Y-92500000D03*
%TD*%
D22*
%TO.P,C7,1*%
%TO.N,+1V1*%
X224835000Y-91000000D03*
%TO.P,C7,2*%
%TO.N,GND*%
X225475000Y-91000000D03*
%TD*%
%TO.P,C11,1*%
%TO.N,+3V3*%
X231525000Y-105000000D03*
%TO.P,C11,2*%
%TO.N,GND*%
X232165000Y-105000000D03*
%TD*%
D23*
%TO.P,C12,1*%
%TO.N,+3V3*%
X232320000Y-111500000D03*
%TO.P,C12,2*%
%TO.N,GND*%
X231680000Y-111500000D03*
%TD*%
D24*
%TO.P,C8,1*%
%TO.N,+1V1*%
X223500000Y-100000000D03*
%TO.P,C8,2*%
%TO.N,GND*%
X223500000Y-100960000D03*
%TD*%
D22*
%TO.P,C14,2*%
%TO.N,GND*%
X220475000Y-106500000D03*
%TO.P,C14,1*%
%TO.N,+3V3*%
X219835000Y-106500000D03*
%TD*%
D25*
%TO.P,C13,1*%
%TO.N,/XIN*%
X219500000Y-118665000D03*
%TO.P,C13,2*%
%TO.N,GND*%
X219500000Y-118025000D03*
%TD*%
D26*
%TO.P,C15,1*%
%TO.N,+3V3*%
X225500000Y-111335000D03*
%TO.P,C15,2*%
%TO.N,GND*%
X225500000Y-111975000D03*
%TD*%
D17*
%TO.P,R10,1*%
%TO.N,/ADC_VREF*%
X232000000Y-102500000D03*
%TO.P,R10,2*%
%TO.N,/ADC_AVDD*%
X232000000Y-101480000D03*
%TD*%
D13*
%TO.P,R11,1*%
%TO.N,/USB_DP*%
X224500000Y-97000000D03*
%TO.P,R11,2*%
%TO.N,/USB_DPX*%
X224500000Y-98020000D03*
%TD*%
D25*
%TO.P,C3,1*%
%TO.N,+3V3*%
X221000000Y-95820000D03*
%TO.P,C3,2*%
%TO.N,GND*%
X221000000Y-95180000D03*
%TD*%
D17*
%TO.P,R2,1*%
%TO.N,Net-(R2-Pad1)*%
X218500000Y-97500000D03*
%TO.P,R2,2*%
%TO.N,/SQPI_SS_N*%
X218500000Y-96480000D03*
%TD*%
D18*
%TO.P,R3,1*%
%TO.N,VBUS*%
X232480000Y-107000000D03*
%TO.P,R3,2*%
%TO.N,/GPIO24*%
X233500000Y-107000000D03*
%TD*%
D27*
%TO.P,Q1,1,G*%
%TO.N,+3V3*%
X232500000Y-100145000D03*
%TO.P,Q1,2,S*%
%TO.N,/GPIO29_ADC3*%
X233500000Y-100145000D03*
%TO.P,Q1,3,D*%
%TO.N,Net-(Q1-D)*%
X233000000Y-98855000D03*
%TD*%
D24*
%TO.P,C9,1*%
%TO.N,/ADC_AVDD*%
X227020000Y-100040000D03*
%TO.P,C9,2*%
%TO.N,GND*%
X227020000Y-101000000D03*
%TD*%
D18*
%TO.P,R13,1*%
%TO.N,/GPIO25*%
X224480000Y-87000000D03*
%TO.P,R13,2*%
%TO.N,Net-(D2-A)*%
X225500000Y-87000000D03*
%TD*%
%TO.P,R4,1*%
%TO.N,/GPIO24*%
X232480000Y-108500000D03*
%TO.P,R4,2*%
%TO.N,GND*%
X233500000Y-108500000D03*
%TD*%
D22*
%TO.P,C10,1*%
%TO.N,+3V3*%
X224835000Y-93500000D03*
%TO.P,C10,2*%
%TO.N,GND*%
X225475000Y-93500000D03*
%TD*%
D25*
%TO.P,C18,1*%
%TO.N,+1V1*%
X226500000Y-111975000D03*
%TO.P,C18,2*%
%TO.N,GND*%
X226500000Y-111335000D03*
%TD*%
D18*
%TO.P,R14,1*%
%TO.N,/XOUT*%
X223000000Y-114500000D03*
%TO.P,R14,2*%
%TO.N,/XIN*%
X224020000Y-114500000D03*
%TD*%
D28*
%TO.P,C1,1*%
%TO.N,VSYS*%
X228100000Y-89500000D03*
%TO.P,C1,2*%
%TO.N,GND*%
X230000000Y-89500000D03*
%TD*%
D29*
%TO.P,U1,1,/CS*%
%TO.N,/SQPI_SS_N*%
X220249999Y-100395600D03*
%TO.P,U1,2,DO(IO1)*%
%TO.N,/SQPI_SD1*%
X220750000Y-100395600D03*
%TO.P,U1,3,/WP(IO2)*%
%TO.N,/SQPI_SD2*%
X221250000Y-100395600D03*
%TO.P,U1,4,GND*%
%TO.N,GND*%
X221750001Y-100395600D03*
%TO.P,U1,5,DI(IO0)*%
%TO.N,/SQPI_SD0*%
X221750001Y-97500000D03*
%TO.P,U1,6,CLK*%
%TO.N,/SQPI_SCLK*%
X221250000Y-97500000D03*
%TO.P,U1,7,/HOLDOR/RESET(IO3)*%
%TO.N,/SQPI_SD3*%
X220750000Y-97500000D03*
%TO.P,U1,8,VCC*%
%TO.N,+3V3*%
X220249999Y-97500000D03*
D30*
%TO.P,U1,9,EPAD*%
%TO.N,unconnected-(U1-EPAD-Pad9)*%
X221000000Y-98947800D03*
%TD*%
D28*
%TO.P,C5,1*%
%TO.N,+3V3*%
X228100000Y-95500000D03*
%TO.P,C5,2*%
%TO.N,GND*%
X230000000Y-95500000D03*
%TD*%
D17*
%TO.P,R8,1*%
%TO.N,Net-(Q1-D)*%
X233500000Y-102520000D03*
%TO.P,R8,2*%
%TO.N,GND*%
X233500000Y-101500000D03*
%TD*%
D31*
%TO.P,C4,1*%
%TO.N,+3V3*%
X219540000Y-103000000D03*
%TO.P,C4,2*%
%TO.N,GND*%
X220500000Y-103000000D03*
%TD*%
D25*
%TO.P,C17,1*%
%TO.N,/XR*%
X225000000Y-118665000D03*
%TO.P,C17,2*%
%TO.N,GND*%
X225000000Y-118025000D03*
%TD*%
%TO.P,C2,1*%
%TO.N,Net-(Q1-D)*%
X232000000Y-97475000D03*
%TO.P,C2,2*%
%TO.N,GND*%
X232000000Y-96835000D03*
%TD*%
D32*
%TO.P,SW1,1*%
%TO.N,Net-(R2-Pad1)*%
X219925000Y-89500000D03*
%TO.P,SW1,2*%
X219925000Y-93650000D03*
%TO.P,SW1,3*%
%TO.N,GND*%
X222075000Y-89500000D03*
%TO.P,SW1,4*%
X222075000Y-93650000D03*
%TD*%
D10*
%TO.P,J3,1,Pin_1*%
%TO.N,/SWCLK*%
X223960000Y-128000000D03*
%TO.P,J3,2,Pin_2*%
%TO.N,GND*%
X226500000Y-128000000D03*
%TO.P,J3,3,Pin_3*%
%TO.N,/SWDIO*%
X229040000Y-128000000D03*
%TD*%
D33*
%TO.P,J1,1,VBUS*%
%TO.N,VBUS*%
X224700000Y-79500000D03*
%TO.P,J1,2,D-*%
%TO.N,/USB_DM*%
X225350000Y-79500000D03*
%TO.P,J1,3,D+*%
%TO.N,/USB_DP*%
X226000000Y-79500000D03*
%TO.P,J1,4,ID*%
%TO.N,unconnected-(J1-ID-Pad4)*%
X226650000Y-79500000D03*
%TO.P,J1,5,GND*%
%TO.N,GND*%
X227300000Y-79500000D03*
D34*
%TO.P,J1,S1,SHIELD*%
X223512500Y-79585000D03*
%TO.P,J1,S2,SHIELD__1*%
X228487500Y-79585000D03*
D35*
%TO.P,J1,S3,SHIELD__2*%
X222625000Y-82160000D03*
D36*
%TO.P,J1,S4,SHIELD__3*%
%TO.N,unconnected-(J1-SHIELD__3-PadS4)*%
X224850000Y-82160000D03*
D37*
%TO.P,J1,S5,SHIELD__4*%
%TO.N,unconnected-(J1-SHIELD__4-PadS5)*%
X227550000Y-82160000D03*
D35*
%TO.P,J1,S6,SHIELD__5*%
%TO.N,GND*%
X229375000Y-82160000D03*
%TD*%
D38*
%TO.P,X1,1,1*%
%TO.N,/XIN*%
X221500000Y-119000000D03*
%TO.P,X1,2,2*%
%TO.N,GND*%
X223200000Y-119000000D03*
%TO.P,X1,3,3*%
%TO.N,/XR*%
X223200000Y-117700000D03*
%TO.P,X1,4,4*%
%TO.N,GND*%
X221500000Y-117700000D03*
%TD*%
D22*
%TO.P,C16,1*%
%TO.N,+3V3*%
X219835000Y-109500000D03*
%TO.P,C16,2*%
%TO.N,GND*%
X220475000Y-109500000D03*
%TD*%
D17*
%TO.P,R1,1*%
%TO.N,+3V3*%
X218500000Y-100500000D03*
%TO.P,R1,2*%
%TO.N,/SQPI_SS_N*%
X218500000Y-99480000D03*
%TD*%
D18*
%TO.P,R15,1*%
%TO.N,/XOUT*%
X224000000Y-116000000D03*
%TO.P,R15,2*%
%TO.N,/XR*%
X225020000Y-116000000D03*
%TD*%
D39*
%TO.P,D2,1,K*%
%TO.N,GND*%
X219030000Y-85000000D03*
%TO.P,D2,2,A*%
%TO.N,Net-(D2-A)*%
X220000000Y-85000000D03*
%TD*%
D18*
%TO.P,R6,1*%
%TO.N,/GPIO23*%
X220980000Y-87000000D03*
%TO.P,R6,2*%
%TO.N,GND*%
X222000000Y-87000000D03*
%TD*%
D24*
%TO.P,C6,2*%
%TO.N,GND*%
X225020000Y-100980000D03*
%TO.P,C6,1*%
%TO.N,+3V3*%
X225020000Y-100020000D03*
%TD*%
D40*
%TO.N,+3V3*%
X230513470Y-101862000D03*
X227699999Y-103996934D03*
%TO.N,/GPIO1*%
X219801999Y-104772000D03*
X217332000Y-104902000D03*
%TO.N,/GPIO27_ADC1*%
X235458000Y-100838000D03*
X228957025Y-105305505D03*
%TO.N,/GPIO6*%
X224321999Y-106590278D03*
X215963700Y-100838000D03*
%TO.N,/GPIO7*%
X221501503Y-107320959D03*
X215138000Y-106426000D03*
%TO.N,/GPIO28_ADC2*%
X228993152Y-104002480D03*
X236474000Y-96266000D03*
%TO.N,/GPIO21*%
X234721352Y-106412028D03*
X228997432Y-108995816D03*
%TO.N,/GPIO24*%
X231980956Y-108100282D03*
X231301999Y-106905500D03*
%TO.N,/USB_DPX*%
X225806000Y-101346000D03*
X225283085Y-98791085D03*
%TO.N,/SQPI_SD3*%
X226174563Y-102191337D03*
X221964200Y-96266000D03*
%TO.N,/SQPI_SCLK*%
X225044000Y-104002802D03*
X222507373Y-100419900D03*
%TO.N,/SQPI_SD0*%
X222564200Y-95564200D03*
X225305500Y-102201277D03*
%TO.N,VSYS*%
X227048300Y-94778400D03*
X232829500Y-94778400D03*
%TO.N,GND*%
X219040000Y-108900000D03*
X229375000Y-84900000D03*
X232713900Y-97116400D03*
X229663500Y-90741600D03*
X226914000Y-106500000D03*
%TO.N,+3V3*%
X224960700Y-113583500D03*
X226700000Y-108984400D03*
X230225000Y-94151800D03*
X219672300Y-110419200D03*
X224835000Y-94219500D03*
X221712600Y-95335200D03*
X224835000Y-92789400D03*
%TO.N,+1V1*%
X222863100Y-97264400D03*
X227380985Y-116128985D03*
X223264300Y-96164200D03*
X226089527Y-104160478D03*
%TO.N,/ADC_AVDD*%
X229362800Y-101904300D03*
X231048800Y-100675300D03*
X227104395Y-99563909D03*
%TO.N,/XIN*%
X224077300Y-111951400D03*
X225871000Y-108977000D03*
%TO.N,VBUS*%
X235712000Y-104158000D03*
X224700000Y-80700000D03*
X232916100Y-105241300D03*
%TO.N,/USB_DP*%
X225288400Y-88334400D03*
X226575900Y-88514000D03*
%TO.N,/GPIO4*%
X224282000Y-105664000D03*
%TO.N,/GPIO20*%
X231256000Y-112550300D03*
X236474000Y-114300000D03*
%TO.N,/GPIO8*%
X223996254Y-107320959D03*
%TO.N,/GPIO9*%
X218400400Y-107748600D03*
%TO.N,/GPIO22*%
X235356159Y-105827011D03*
X228854000Y-107188000D03*
%TO.N,/GPIO26_ADC0*%
X230747080Y-105431722D03*
X236472799Y-101401709D03*
%TO.N,/GPIO2*%
X224002605Y-104002923D03*
%TO.N,/GPIO5*%
X222250425Y-106372824D03*
%TO.N,/GPIO15*%
X222925300Y-113090900D03*
X224889700Y-108985200D03*
%TO.N,/ADC_VREF*%
X229137000Y-97956200D03*
%TO.N,/GPIO0*%
X221468590Y-104095420D03*
%TO.N,/3V3_EN*%
X230500000Y-87440000D03*
%TO.N,/GPIO3*%
X221409637Y-105313321D03*
%TO.N,/RUN*%
X228621700Y-111693100D03*
%TO.N,/SWCLK*%
X227995100Y-108997198D03*
X223960000Y-120398500D03*
%TO.N,/GPIO29_ADC3*%
X230481900Y-102742100D03*
X231924300Y-100702100D03*
%TO.N,/GPIO23*%
X221811500Y-87939600D03*
X227048300Y-89194900D03*
%TO.N,/USB_DMX*%
X226825700Y-98010000D03*
X227853800Y-99843900D03*
%TO.N,/XOUT*%
X224809800Y-114385300D03*
X226795100Y-114554000D03*
%TO.N,/SQPI_SS_N*%
X218370600Y-98651000D03*
X219539800Y-100311500D03*
%TO.N,+3V3*%
X220750112Y-108561592D03*
%TD*%
D41*
%TO.N,VBUS*%
X237532000Y-81816200D02*
X236458100Y-80742300D01*
X237532000Y-103107469D02*
X237532000Y-81816200D01*
X236481469Y-104158000D02*
X237532000Y-103107469D01*
X235712000Y-104158000D02*
X236481469Y-104158000D01*
%TO.N,/GPIO20*%
X236500000Y-114326000D02*
X236500000Y-115380000D01*
X236474000Y-114300000D02*
X236500000Y-114326000D01*
%TO.N,+3V3*%
X232080000Y-105713456D02*
X231525000Y-105158456D01*
X231525000Y-105158456D02*
X231525000Y-105000000D01*
X231910000Y-106631076D02*
X232080000Y-106461076D01*
X231910000Y-107500282D02*
X231910000Y-106631076D01*
X231375738Y-107505500D02*
X231380956Y-107500282D01*
X231380956Y-107500282D02*
X231910000Y-107500282D01*
X230862300Y-107505500D02*
X231375738Y-107505500D01*
X232080000Y-106461076D02*
X232080000Y-105713456D01*
X230489000Y-107505500D02*
X230862300Y-107505500D01*
X232320000Y-111341544D02*
X232320000Y-111500000D01*
X231451000Y-110472544D02*
X232320000Y-111341544D01*
X231145100Y-108075715D02*
X231451000Y-108381614D01*
X231451000Y-108381614D02*
X231451000Y-110472544D01*
X230862300Y-107505500D02*
X230862300Y-107841400D01*
X230910786Y-107841400D02*
X231145100Y-108075715D01*
%TO.N,/GPIO24*%
X230598900Y-106300000D02*
X229903600Y-106300000D01*
X230610000Y-107105500D02*
X230610000Y-106311100D01*
X231101999Y-107105500D02*
X230610000Y-107105500D01*
X231301999Y-106905500D02*
X231101999Y-107105500D01*
X230610000Y-106311100D02*
X230598900Y-106300000D01*
%TO.N,+3V3*%
X230513470Y-102006630D02*
X230378000Y-102142100D01*
X230513470Y-101862000D02*
X230513470Y-102006630D01*
X231076414Y-102142100D02*
X230378000Y-102142100D01*
X230378000Y-102142100D02*
X230036200Y-102142100D01*
X227331905Y-103996934D02*
X227699999Y-103996934D01*
X227099999Y-103765028D02*
X227331905Y-103996934D01*
X227099999Y-103096400D02*
X227099999Y-103765028D01*
%TO.N,/GPIO28_ADC2*%
X228993152Y-104484851D02*
X229208302Y-104700001D01*
X229208302Y-104700001D02*
X229903600Y-104700001D01*
X228993152Y-104002480D02*
X228993152Y-104484851D01*
%TO.N,+1V1*%
X228299999Y-104599800D02*
X228299999Y-103096400D01*
X227369086Y-104599800D02*
X228299999Y-104599800D01*
X226929764Y-104160478D02*
X227369086Y-104599800D01*
X226089527Y-104160478D02*
X226929764Y-104160478D01*
X226089527Y-104160478D02*
X226089527Y-104014973D01*
X226300000Y-103950005D02*
X226300000Y-103804500D01*
X226089527Y-104160478D02*
X226300000Y-103950005D01*
X226089527Y-104014973D02*
X226300000Y-103804500D01*
%TO.N,+3V3*%
X228762800Y-102152829D02*
X228700001Y-102215628D01*
X228700001Y-102215628D02*
X228700001Y-103096400D01*
X228762800Y-101062800D02*
X228762800Y-102152829D01*
X228700000Y-101000000D02*
X228762800Y-101062800D01*
%TO.N,/USB_DMX*%
X227900001Y-101414315D02*
X227900000Y-103096400D01*
X227900001Y-99890101D02*
X227900001Y-101414315D01*
X227853800Y-99843900D02*
X227900001Y-99890101D01*
%TO.N,/USB_DPX*%
X227500001Y-101580000D02*
X227500001Y-103096400D01*
X226040000Y-101580000D02*
X227500001Y-101580000D01*
X225806000Y-101346000D02*
X226040000Y-101580000D01*
%TO.N,/USB_DP*%
X226040300Y-95459700D02*
X224500000Y-97000000D01*
X226040300Y-89397400D02*
X226040300Y-95459700D01*
X225288400Y-88645500D02*
X226040300Y-89397400D01*
X225288400Y-88334400D02*
X225288400Y-88645500D01*
%TO.N,+1V1*%
X223264300Y-91000000D02*
X223264300Y-96164200D01*
X224835000Y-91000000D02*
X223264300Y-91000000D01*
%TO.N,GND*%
X225475000Y-90347000D02*
X225475000Y-91000000D01*
X222075000Y-90326700D02*
X225454700Y-90326700D01*
X225454700Y-90326700D02*
X225475000Y-90347000D01*
%TO.N,+3V3*%
X222566100Y-103369700D02*
X223096400Y-103900000D01*
X221345781Y-103369700D02*
X222566100Y-103369700D01*
X220266134Y-103775685D02*
X220431820Y-103610000D01*
X220431820Y-103610000D02*
X221105481Y-103610000D01*
X219202000Y-104010000D02*
X220031820Y-104010000D01*
X219202000Y-105156000D02*
X219202000Y-104010000D01*
X219418000Y-105372000D02*
X219202000Y-105156000D01*
X221105481Y-103610000D02*
X221345781Y-103369700D01*
X220166371Y-105372000D02*
X219418000Y-105372000D01*
X221005000Y-106210629D02*
X220166371Y-105372000D01*
X219922000Y-107400000D02*
X220373456Y-107400000D01*
X219922000Y-108500000D02*
X219922000Y-107400000D01*
X220249216Y-108500000D02*
X219922000Y-108500000D01*
X221005000Y-106768456D02*
X221005000Y-106210629D01*
X220310808Y-108561592D02*
X220249216Y-108500000D01*
X220750112Y-108561592D02*
X220310808Y-108561592D01*
X220373456Y-107400000D02*
X221005000Y-106768456D01*
X220031820Y-104010000D02*
X220266134Y-103775685D01*
%TO.N,/SWCLK*%
X227995100Y-108997198D02*
X227796798Y-109195500D01*
X227500000Y-109195500D02*
X227500000Y-109903600D01*
X227796798Y-109195500D02*
X227500000Y-109195500D01*
%TO.N,/GPIO21*%
X229197200Y-108796048D02*
X229197200Y-107911099D01*
X229208299Y-107900000D02*
X229903600Y-107900000D01*
X228997432Y-108995816D02*
X229197200Y-108796048D01*
X229197200Y-107911099D02*
X229208299Y-107900000D01*
%TO.N,/XOUT*%
X227022000Y-111009000D02*
X226720300Y-110707300D01*
X226500000Y-110707300D02*
X226300000Y-110507300D01*
X227022000Y-114327100D02*
X227022000Y-111009000D01*
X226720300Y-110707300D02*
X226500000Y-110707300D01*
X226795100Y-114554000D02*
X227022000Y-114327100D01*
X226300000Y-110507300D02*
X226300000Y-110248500D01*
%TO.N,+1V1*%
X226191600Y-112283400D02*
X226500000Y-111975000D01*
X226191600Y-114939600D02*
X226191600Y-112283400D01*
X227380985Y-116128985D02*
X226191600Y-114939600D01*
X227434800Y-116075170D02*
X227434800Y-110846300D01*
X227380985Y-116128985D02*
X227434800Y-116075170D01*
X227434800Y-110846300D02*
X227110900Y-110522400D01*
%TO.N,/GPIO19*%
X230611700Y-108700000D02*
X229903600Y-108700000D01*
X230654200Y-111170700D02*
X230637400Y-111153900D01*
X230637400Y-111153900D02*
X230637400Y-108725700D01*
X230654200Y-117920000D02*
X230654200Y-111170700D01*
X236500000Y-117920000D02*
X230654200Y-117920000D01*
X230637400Y-108725700D02*
X230611700Y-108700000D01*
%TO.N,/GPIO18*%
X230235700Y-109434000D02*
X229903600Y-109101900D01*
X230252500Y-118726814D02*
X230252500Y-111337000D01*
X231985686Y-120460000D02*
X230252500Y-118726814D01*
X236500000Y-120460000D02*
X231985686Y-120460000D01*
X230252500Y-111337000D02*
X230235700Y-111320200D01*
X230235700Y-111320200D02*
X230235700Y-109434000D01*
%TO.N,GND*%
X233500000Y-110300000D02*
X236500000Y-110300000D01*
X233500000Y-108597100D02*
X233500000Y-110300000D01*
X234148600Y-107948500D02*
X233500000Y-108597100D01*
X233500000Y-112008700D02*
X233500000Y-108500000D01*
X231680000Y-111666700D02*
X232022000Y-112008700D01*
X231680000Y-111500000D02*
X231680000Y-111666700D01*
X232022000Y-112008700D02*
X233500000Y-112008700D01*
%TO.N,/GPIO1*%
X219873998Y-104700001D02*
X219801999Y-104772000D01*
X223096400Y-104700001D02*
X219873998Y-104700001D01*
%TO.N,/GPIO3*%
X221596316Y-105500000D02*
X223096400Y-105500000D01*
X221409637Y-105313321D02*
X221596316Y-105500000D01*
%TO.N,/GPIO5*%
X222312349Y-106310900D02*
X222532400Y-106310900D01*
X222250425Y-106372824D02*
X222312349Y-106310900D01*
%TO.N,/GPIO0*%
X222390000Y-103769700D02*
X222390000Y-104288900D01*
X222374614Y-103769700D02*
X222390000Y-103769700D01*
X222048894Y-104095420D02*
X222374614Y-103769700D01*
X221468590Y-104095420D02*
X222048894Y-104095420D01*
X222390000Y-104288900D02*
X222401100Y-104300000D01*
X222401100Y-104300000D02*
X223096400Y-104300000D01*
%TO.N,GND*%
X220475000Y-106658456D02*
X220475000Y-106500000D01*
X220133456Y-107000000D02*
X220475000Y-106658456D01*
X219572686Y-107000000D02*
X220133456Y-107000000D01*
X219400400Y-108162815D02*
X219400400Y-107172286D01*
X219400400Y-107172286D02*
X219572686Y-107000000D01*
X218851607Y-108711607D02*
X219400400Y-108162815D01*
X219040000Y-108900000D02*
X218851607Y-108711607D01*
X219040000Y-108900000D02*
X220033456Y-108900000D01*
X220033456Y-108900000D02*
X220475000Y-109341544D01*
X220475000Y-109341544D02*
X220475000Y-109500000D01*
%TO.N,+3V3*%
X219000400Y-107500071D02*
X218753665Y-107253335D01*
X218440000Y-108557529D02*
X219000400Y-107997129D01*
X218753665Y-107253335D02*
X219835000Y-106172000D01*
X219835000Y-109500000D02*
X218440000Y-109500000D01*
X218440000Y-109500000D02*
X218440000Y-108557529D01*
X219000400Y-107997129D02*
X219000400Y-107500071D01*
%TO.N,/GPIO9*%
X222388300Y-108300000D02*
X223096400Y-108300000D01*
X222371900Y-108283600D02*
X222388300Y-108300000D01*
X221875600Y-108283600D02*
X222371900Y-108283600D01*
X221194800Y-108964400D02*
X221875600Y-108283600D01*
X221194800Y-109751200D02*
X221194800Y-108964400D01*
X218546000Y-112400000D02*
X221194800Y-109751200D01*
X218400400Y-107748600D02*
X218400400Y-107925286D01*
X216662000Y-109663686D02*
X216662000Y-112400000D01*
X218400400Y-107925286D02*
X216662000Y-109663686D01*
X216662000Y-112400000D02*
X218546000Y-112400000D01*
%TO.N,/GPIO2*%
X224033471Y-105064000D02*
X224008371Y-105089100D01*
X224530529Y-105064000D02*
X224033471Y-105064000D01*
X224555629Y-105089100D02*
X224530529Y-105064000D01*
X224008371Y-105089100D02*
X223803000Y-105089100D01*
X224599800Y-105089100D02*
X224555629Y-105089100D01*
X224599800Y-104599800D02*
X224599800Y-105089100D01*
X224792469Y-104599800D02*
X224599800Y-104599800D01*
X224444000Y-104002923D02*
X224444000Y-104251331D01*
X224002605Y-104002923D02*
X224444000Y-104002923D01*
X224444000Y-104251331D02*
X224792469Y-104599800D01*
%TO.N,/SQPI_SCLK*%
X225288898Y-104002802D02*
X225505500Y-103786200D01*
X225505500Y-103786200D02*
X225505500Y-103096400D01*
X225044000Y-104002802D02*
X225288898Y-104002802D01*
%TO.N,/GPIO1*%
X217424000Y-104902000D02*
X217332000Y-104902000D01*
%TO.N,GND*%
X220475000Y-106246315D02*
X220475000Y-106500000D01*
X220000685Y-105772000D02*
X220475000Y-106246315D01*
X218732000Y-105772000D02*
X220000685Y-105772000D01*
X219866134Y-103610000D02*
X218732000Y-103610000D01*
X220120000Y-103356134D02*
X219866134Y-103610000D01*
X220120000Y-103000000D02*
X220120000Y-103356134D01*
X218732000Y-103610000D02*
X218732000Y-105772000D01*
X220500000Y-103000000D02*
X220120000Y-103000000D01*
%TO.N,+3V3*%
X218332000Y-103254000D02*
X218586000Y-103000000D01*
X218332000Y-106172000D02*
X218332000Y-103254000D01*
X219835000Y-106172000D02*
X218332000Y-106172000D01*
%TO.N,GND*%
X217880000Y-99940000D02*
X215500000Y-97560000D01*
X217880000Y-101905686D02*
X217880000Y-99940000D01*
X217932000Y-107368471D02*
X217932000Y-101957686D01*
X217932000Y-101957686D02*
X217880000Y-101905686D01*
X217800400Y-107500071D02*
X217932000Y-107368471D01*
X215500000Y-110260000D02*
X217800400Y-107959600D01*
X217800400Y-107959600D02*
X217800400Y-107500071D01*
%TO.N,+3V3*%
X218586000Y-102046000D02*
X218586000Y-103000000D01*
X218500000Y-101960000D02*
X218586000Y-102046000D01*
X218500000Y-100500000D02*
X218500000Y-101960000D01*
X218586000Y-103000000D02*
X219540000Y-103000000D01*
%TO.N,/GPIO1*%
X217424000Y-100522105D02*
X217424000Y-104902000D01*
X215939895Y-99038000D02*
X217424000Y-100522105D01*
X214438000Y-98084000D02*
X215392000Y-99038000D01*
X214438000Y-83382000D02*
X214438000Y-98084000D01*
X215392000Y-99038000D02*
X215939895Y-99038000D01*
X215500000Y-82320000D02*
X214438000Y-83382000D01*
%TO.N,/GPIO27_ADC1*%
X235802000Y-100838000D02*
X236500000Y-100140000D01*
X235458000Y-100838000D02*
X235802000Y-100838000D01*
X229162530Y-105100000D02*
X228957025Y-105305505D01*
X229903600Y-105100000D02*
X229162530Y-105100000D01*
%TO.N,/GPIO26_ADC0*%
X230667902Y-105510900D02*
X230611900Y-105510900D01*
X230747080Y-105431722D02*
X230667902Y-105510900D01*
%TO.N,/GPIO29_ADC3*%
X230637200Y-104246100D02*
X230594200Y-104289100D01*
X230637200Y-102897400D02*
X230637200Y-104246100D01*
X230481900Y-102742100D02*
X230637200Y-102897400D01*
%TO.N,+3V3*%
X230036200Y-102142100D02*
X229973100Y-102079000D01*
X231380000Y-102445686D02*
X231076414Y-102142100D01*
X231380000Y-102818924D02*
X231380000Y-102445686D01*
X231631076Y-103070000D02*
X231380000Y-102818924D01*
X232410000Y-104115000D02*
X232410000Y-103124000D01*
X232410000Y-103124000D02*
X232356000Y-103070000D01*
X231866544Y-104500000D02*
X232025000Y-104500000D01*
X232025000Y-104500000D02*
X232410000Y-104115000D01*
X231635000Y-104731544D02*
X231866544Y-104500000D01*
X232356000Y-103070000D02*
X231631076Y-103070000D01*
X231635000Y-104890000D02*
X231635000Y-104731544D01*
X231525000Y-105000000D02*
X231635000Y-104890000D01*
%TO.N,/GPIO7*%
X214438000Y-105726000D02*
X215138000Y-106426000D01*
X215392000Y-104118000D02*
X215060105Y-104118000D01*
X215500000Y-104010000D02*
X215392000Y-104118000D01*
X215500000Y-102640000D02*
X215500000Y-104010000D01*
X215060105Y-104118000D02*
X214438000Y-104740105D01*
X214438000Y-104740105D02*
X214438000Y-105726000D01*
%TO.N,/GPIO6*%
X215963700Y-100838000D02*
X215500000Y-100374300D01*
X215500000Y-100374300D02*
X215500000Y-100100000D01*
X224212277Y-106700000D02*
X223096400Y-106700000D01*
X224321999Y-106590278D02*
X224212277Y-106700000D01*
%TO.N,/GPIO8*%
X223996254Y-107320959D02*
X223996254Y-107697546D01*
X223996254Y-107697546D02*
X223804700Y-107889100D01*
%TO.N,/GPIO4*%
X224046000Y-105900000D02*
X224282000Y-105664000D01*
X223441300Y-105900000D02*
X224046000Y-105900000D01*
%TO.N,/GPIO7*%
X221722463Y-107099999D02*
X223096400Y-107099999D01*
X221501503Y-107320959D02*
X221722463Y-107099999D01*
%TO.N,+3V3*%
X222015300Y-107883600D02*
X222388100Y-107510800D01*
X221709914Y-107883600D02*
X222015300Y-107883600D01*
X221031922Y-108561592D02*
X221709914Y-107883600D01*
X220750112Y-108561592D02*
X221031922Y-108561592D01*
%TO.N,GND*%
X226500000Y-104598100D02*
X226500000Y-106500000D01*
X226800200Y-104598100D02*
X226500000Y-104598100D01*
X226830400Y-104628300D02*
X226800200Y-104598100D01*
X226831900Y-104628300D02*
X226830400Y-104628300D01*
X227054100Y-104850500D02*
X226831900Y-104628300D01*
X227054100Y-106359900D02*
X227054100Y-104850500D01*
X226914000Y-106500000D02*
X227054100Y-106359900D01*
%TO.N,/GPIO28_ADC2*%
X236500000Y-96240000D02*
X236474000Y-96266000D01*
X236500000Y-95060000D02*
X236500000Y-96240000D01*
%TO.N,/GPIO21*%
X237650000Y-111690000D02*
X236500000Y-112840000D01*
X237490000Y-109220000D02*
X237650000Y-109380000D01*
X237650000Y-109380000D02*
X237650000Y-111690000D01*
X236458105Y-109220000D02*
X237490000Y-109220000D01*
X234721352Y-107483247D02*
X236458105Y-109220000D01*
X234721352Y-106412028D02*
X234721352Y-107483247D01*
%TO.N,/GPIO22*%
X235356159Y-105827011D02*
X235356159Y-106616159D01*
X235356159Y-106616159D02*
X236500000Y-107760000D01*
X228942000Y-107100000D02*
X229903600Y-107100000D01*
X228854000Y-107188000D02*
X228942000Y-107100000D01*
%TO.N,/GPIO24*%
X232080282Y-108100282D02*
X232480000Y-108500000D01*
X231980956Y-108100282D02*
X232080282Y-108100282D01*
X232480000Y-108020000D02*
X232480000Y-108500000D01*
%TO.N,/ADC_VREF*%
X230374800Y-100874800D02*
X230374800Y-99350000D01*
X230374800Y-99350000D02*
X229500000Y-99350000D01*
X232000000Y-102500000D02*
X230374800Y-100874800D01*
%TO.N,GND*%
X232868300Y-104641300D02*
X232523700Y-104641300D01*
X232523700Y-104641300D02*
X232165000Y-105000000D01*
X232868300Y-103356700D02*
X232868300Y-104641300D01*
X234122100Y-107316824D02*
X234148600Y-107343324D01*
X234148600Y-107343324D02*
X234148600Y-107948500D01*
X234122100Y-106442000D02*
X234122100Y-107316824D01*
X233680000Y-106380000D02*
X234060100Y-106380000D01*
X233680000Y-103388200D02*
X233680000Y-106380000D01*
X233648500Y-103356700D02*
X233680000Y-103388200D01*
X234060100Y-106380000D02*
X234122100Y-106442000D01*
X234524300Y-100461800D02*
X234524300Y-103356700D01*
X234514400Y-99585600D02*
X234514400Y-100451900D01*
X234524300Y-103356700D02*
X233648500Y-103356700D01*
X236500000Y-97600000D02*
X234514400Y-99585600D01*
X234514400Y-100451900D02*
X234524300Y-100461800D01*
X233648500Y-103356700D02*
X232868300Y-103356700D01*
%TO.N,/GPIO26_ADC0*%
X236472799Y-101401709D02*
X236472799Y-102652799D01*
X236472799Y-102652799D02*
X236500000Y-102680000D01*
%TO.N,/USB_DPX*%
X224512000Y-98020000D02*
X225283085Y-98791085D01*
X224500000Y-98020000D02*
X224512000Y-98020000D01*
%TO.N,GND*%
X225670000Y-100330000D02*
X225020000Y-100980000D01*
X226350000Y-100330000D02*
X225670000Y-100330000D01*
X227020000Y-101000000D02*
X226350000Y-100330000D01*
%TO.N,/SQPI_SD0*%
X225105500Y-103090900D02*
X225100000Y-103096400D01*
X225105500Y-102401277D02*
X225105500Y-103090900D01*
X225305500Y-102201277D02*
X225105500Y-102401277D01*
%TO.N,/SQPI_SD2*%
X224705500Y-102177600D02*
X224705500Y-102746000D01*
X224517900Y-101990000D02*
X224705500Y-102177600D01*
X223345415Y-101990000D02*
X224517900Y-101990000D01*
X223165715Y-102169700D02*
X223345415Y-101990000D01*
X222193500Y-102169700D02*
X223165715Y-102169700D01*
X221250000Y-101226200D02*
X222193500Y-102169700D01*
X221250000Y-100395600D02*
X221250000Y-101226200D01*
%TO.N,/SQPI_SD1*%
X224300000Y-102401100D02*
X224300000Y-103096400D01*
X224288900Y-102390000D02*
X224300000Y-102401100D01*
X223511100Y-102569700D02*
X223511100Y-102390000D01*
X222003000Y-102569700D02*
X223511100Y-102569700D01*
X220750000Y-101316700D02*
X222003000Y-102569700D01*
X220750000Y-100395600D02*
X220750000Y-101316700D01*
X223511100Y-102390000D02*
X224288900Y-102390000D01*
%TO.N,/ADC_AVDD*%
X227020000Y-99648304D02*
X227020000Y-100040000D01*
X227104395Y-99563909D02*
X227020000Y-99648304D01*
%TO.N,/SQPI_SD3*%
X226118529Y-102390000D02*
X225911100Y-102390000D01*
X226174563Y-102333966D02*
X226118529Y-102390000D01*
X225905500Y-102395600D02*
X225905500Y-102930715D01*
X226174563Y-102191337D02*
X226174563Y-102333966D01*
X225911100Y-102390000D02*
X225905500Y-102395600D01*
X221352456Y-96266000D02*
X221964200Y-96266000D01*
X220750000Y-96868456D02*
X221352456Y-96266000D01*
X220750000Y-97500000D02*
X220750000Y-96868456D01*
%TO.N,/SQPI_SCLK*%
X222463100Y-100375627D02*
X222507373Y-100419900D01*
X222125500Y-98520800D02*
X222463100Y-98858400D01*
X221664400Y-98520800D02*
X222125500Y-98520800D01*
X221250000Y-98106400D02*
X221664400Y-98520800D01*
X222463100Y-98858400D02*
X222463100Y-100375627D01*
X221250000Y-97500000D02*
X221250000Y-98106400D01*
%TO.N,/SQPI_SD0*%
X222564200Y-96685801D02*
X221750001Y-97500000D01*
X222564200Y-95564200D02*
X222564200Y-96685801D01*
%TO.N,+3V3*%
X219835000Y-106500000D02*
X219835000Y-106172000D01*
X219672300Y-110419200D02*
X219672300Y-109662700D01*
X219672300Y-109662700D02*
X219835000Y-109500000D01*
X228455500Y-100755500D02*
X228700000Y-101000000D01*
X229500000Y-101000000D02*
X229025000Y-101000000D01*
X227099999Y-102639999D02*
X227099999Y-103096400D01*
X226822000Y-102362000D02*
X227099999Y-102639999D01*
X226700000Y-102484000D02*
X226822000Y-102362000D01*
X226700000Y-103096400D02*
X226700000Y-102484000D01*
%TO.N,VSYS*%
X230951700Y-88241100D02*
X231119400Y-88073400D01*
X234187000Y-87734200D02*
X233847800Y-88073400D01*
X233000000Y-88073400D02*
X232152200Y-88073400D01*
X234187000Y-84673000D02*
X234187000Y-87734200D01*
X230811200Y-85848900D02*
X230131100Y-85848900D01*
X231119400Y-86157100D02*
X230811200Y-85848900D01*
X232152200Y-88073400D02*
X231119400Y-88073400D01*
X233847800Y-88073400D02*
X234100400Y-88326000D01*
X233000000Y-88073400D02*
X233847800Y-88073400D01*
X230951700Y-91500000D02*
X230951700Y-88241100D01*
X228100000Y-87880000D02*
X228100000Y-89500000D01*
X230225000Y-91500000D02*
X230951700Y-91500000D01*
X234000000Y-96490000D02*
X232829500Y-95319500D01*
X229480000Y-86500000D02*
X228100000Y-87880000D01*
X227048300Y-92500000D02*
X227048300Y-94778400D01*
X227775000Y-92500000D02*
X227048300Y-92500000D01*
X231119400Y-88073400D02*
X231119400Y-86157100D01*
X232829500Y-95319500D02*
X232829500Y-94778400D01*
X234100400Y-88326000D02*
X234100400Y-96389600D01*
X230131100Y-85848900D02*
X229480000Y-86500000D01*
X234100400Y-96389600D02*
X234000000Y-96490000D01*
X236500000Y-82360000D02*
X234187000Y-84673000D01*
%TO.N,GND*%
X214436300Y-121896300D02*
X215500000Y-122960000D01*
X223512500Y-79585000D02*
X223512500Y-80661700D01*
D42*
X226017300Y-111055800D02*
X225911000Y-110949500D01*
D41*
X223440100Y-101019900D02*
X223500000Y-100960000D01*
X222075000Y-93650000D02*
X222075000Y-92823300D01*
X232868300Y-103356700D02*
X232868300Y-102131700D01*
X225279000Y-119215700D02*
X226500000Y-120436700D01*
X228138400Y-93000000D02*
X227775000Y-93000000D01*
X229000000Y-92500000D02*
X229000000Y-91198300D01*
X221840400Y-101103700D02*
X221898800Y-101045300D01*
X222965900Y-81208300D02*
X223512500Y-80661700D01*
X225911000Y-110921300D02*
X225601600Y-110611900D01*
X221916800Y-100895400D02*
X221996600Y-100895400D01*
X229375000Y-81684100D02*
X229375000Y-82160000D01*
X229000000Y-92500000D02*
X230225000Y-92500000D01*
X228138400Y-93000000D02*
X228501700Y-93000000D01*
X235393700Y-86006300D02*
X236500000Y-84900000D01*
X221898800Y-101045300D02*
X221898800Y-100913400D01*
X222625000Y-81684100D02*
X222345900Y-81684100D01*
X226046600Y-111335000D02*
X226500000Y-111335000D01*
X216833700Y-89112700D02*
X216859800Y-89086600D01*
X218339600Y-85000000D02*
X219030000Y-85000000D01*
X224135000Y-100960000D02*
X223500000Y-100960000D01*
X228119100Y-80491700D02*
X227300000Y-80491700D01*
X232000000Y-96835000D02*
X232432500Y-96835000D01*
D42*
X225500000Y-109903600D02*
X225500000Y-110600500D01*
D41*
X215500000Y-97560000D02*
X216432000Y-96628000D01*
X229375000Y-81208300D02*
X229034100Y-81208300D01*
X221365400Y-86365400D02*
X222000000Y-87000000D01*
X225681100Y-111973900D02*
X226046600Y-111608400D01*
X225214600Y-118025000D02*
X225504200Y-118314600D01*
X216432000Y-95841400D02*
X216670600Y-95602800D01*
X220349400Y-87328300D02*
X221694400Y-88673300D01*
X216919200Y-86279100D02*
X217097800Y-86100500D01*
X231335000Y-96835000D02*
X232000000Y-96835000D01*
X222625000Y-81208300D02*
X222965900Y-81208300D01*
X219500000Y-118025000D02*
X219825000Y-117700000D01*
X230000000Y-89500000D02*
X230000000Y-90405100D01*
X232432500Y-96835000D02*
X232713900Y-97116400D01*
X226500000Y-120436700D02*
X226500000Y-128000000D01*
X221694400Y-88673300D02*
X222075000Y-88673300D01*
X226046600Y-111085100D02*
X226017300Y-111055800D01*
X229000000Y-91198300D02*
X229456700Y-90741600D01*
X221703300Y-94476700D02*
X222075000Y-94476700D01*
D42*
X225510900Y-110611400D02*
X225500000Y-110600500D01*
D41*
X222075000Y-89500000D02*
X222075000Y-90326700D01*
X217097800Y-86100500D02*
X217239100Y-86100500D01*
X216859800Y-86338500D02*
X216919200Y-86279100D01*
X228501700Y-92998300D02*
X229000000Y-92500000D01*
X223200000Y-119000000D02*
X224051700Y-119000000D01*
X233500000Y-108500000D02*
X233597100Y-108500000D01*
X224135000Y-100960000D02*
X225000000Y-100960000D01*
X233597100Y-108500000D02*
X234148600Y-107948500D01*
X225000000Y-118025000D02*
X225214600Y-118025000D01*
X230000000Y-90405100D02*
X229663500Y-90741600D01*
X225279000Y-119215700D02*
X224267400Y-119215700D01*
X217239100Y-86100500D02*
X218339600Y-85000000D01*
X226046600Y-111335000D02*
X226046600Y-111085100D01*
X222625000Y-82160000D02*
X222625000Y-81684100D01*
X229375000Y-81684100D02*
X229375000Y-81208300D01*
X228487500Y-80123300D02*
X228119100Y-80491700D01*
X225504200Y-118990500D02*
X225279000Y-119215700D01*
X225681100Y-112156100D02*
X225500000Y-111975000D01*
X225214600Y-118025000D02*
X225681100Y-117558500D01*
X236500000Y-97600000D02*
X235393700Y-96493700D01*
X225681100Y-117558500D02*
X225681100Y-112218300D01*
X215500000Y-110260000D02*
X214436300Y-111323700D01*
X222625000Y-81684100D02*
X222625000Y-81208300D01*
X228501700Y-93000000D02*
X228501700Y-92998300D01*
X220349400Y-86319400D02*
X220349400Y-86365400D01*
X232868300Y-102131700D02*
X233500000Y-101500000D01*
D42*
X225911000Y-110949500D02*
X225911000Y-110921300D01*
D41*
X215500000Y-84860000D02*
X216919200Y-86279100D01*
X225000000Y-100960000D02*
X225020000Y-100980000D01*
X225601600Y-110611900D02*
X225510900Y-110611900D01*
X221898800Y-100913400D02*
X221916800Y-100895400D01*
X214436300Y-111323700D02*
X214436300Y-121896300D01*
X216832200Y-95357700D02*
X216832200Y-93712000D01*
X216670600Y-95519300D02*
X216832200Y-95357700D01*
X222999900Y-119000000D02*
X223200000Y-119000000D01*
X222121100Y-101019900D02*
X223440100Y-101019900D01*
X221000000Y-95180000D02*
X221703300Y-94476700D01*
X216670600Y-95602800D02*
X216670600Y-95519300D01*
X225475000Y-93500000D02*
X225475000Y-91000000D01*
X221750000Y-100395600D02*
X221750000Y-101103700D01*
X224267400Y-119215700D02*
X224051700Y-119000000D01*
X222075000Y-90326700D02*
X222075000Y-92823300D01*
X225681100Y-112218300D02*
X225681100Y-112156100D01*
X222345900Y-81684100D02*
X219030000Y-85000000D01*
X227300000Y-79500000D02*
X227300000Y-80491700D01*
X235393700Y-96493700D02*
X235393700Y-86006300D01*
X229375000Y-82160000D02*
X229375000Y-84900000D01*
X216859800Y-89086600D02*
X216859800Y-86338500D01*
X229034100Y-81208300D02*
X228487500Y-80661700D01*
X222075000Y-93650000D02*
X222075000Y-94476700D01*
X221996600Y-100895400D02*
X222121100Y-101019900D01*
X216833700Y-93710500D02*
X216833700Y-89112700D01*
X225681100Y-112218300D02*
X225681100Y-111973900D01*
X220349400Y-86365400D02*
X221365400Y-86365400D01*
X228487500Y-79585000D02*
X228487500Y-80123300D01*
D42*
X225510900Y-110611900D02*
X225510900Y-110611400D01*
D41*
X229456700Y-90741600D02*
X229663500Y-90741600D01*
X219030000Y-85000000D02*
X220349400Y-86319400D01*
X219825000Y-117700000D02*
X221500000Y-117700000D01*
X230000000Y-95500000D02*
X231335000Y-96835000D01*
X228487500Y-80123300D02*
X228487500Y-80661700D01*
X221699900Y-117700000D02*
X222999900Y-119000000D01*
X220349400Y-86365400D02*
X220349400Y-87328300D01*
X222075000Y-89500000D02*
X222075000Y-88673300D01*
X226046600Y-111608400D02*
X226046600Y-111335000D01*
X216832200Y-93712000D02*
X216833700Y-93710500D01*
X216432000Y-96628000D02*
X216432000Y-95841400D01*
X225504200Y-118314600D02*
X225504200Y-118990500D01*
X221500000Y-117700000D02*
X221699900Y-117700000D01*
X221750000Y-101103700D02*
X221840400Y-101103700D01*
%TO.N,+3V3*%
X221000000Y-95820000D02*
X220250000Y-96570000D01*
X225020000Y-99902700D02*
X226128800Y-98793900D01*
X226700000Y-109195500D02*
X226700000Y-108984400D01*
X225282200Y-111335000D02*
X225500000Y-111335000D01*
X229973100Y-101473100D02*
X229973100Y-102079000D01*
X219987600Y-97452100D02*
X219879600Y-97452100D01*
X224960700Y-113583500D02*
X224960700Y-111656500D01*
X228225000Y-95500000D02*
X228100000Y-95500000D01*
X224835000Y-93500000D02*
X224835000Y-94219500D01*
X232500000Y-100145000D02*
X229356900Y-97001900D01*
X229820800Y-102297400D02*
X229820800Y-103817200D01*
X226696300Y-98793900D02*
X226736700Y-98834300D01*
X227077700Y-98834300D02*
X227218200Y-98974800D01*
X219821200Y-99178800D02*
X218500000Y-100500000D01*
X221000000Y-95820000D02*
X221227800Y-95820000D01*
D42*
X223096400Y-107500000D02*
X222399500Y-107500000D01*
X230489000Y-107505500D02*
X230483500Y-107500000D01*
D41*
X228100000Y-93825000D02*
X227775000Y-93500000D01*
X220250000Y-97854000D02*
X220250000Y-97500000D01*
X220223000Y-97865100D02*
X220223000Y-97687500D01*
X229973100Y-102079000D02*
X229973100Y-102145100D01*
X228455500Y-100755500D02*
X228455500Y-99594700D01*
X226736700Y-98834300D02*
X227077700Y-98834300D01*
X226128800Y-98793900D02*
X226696300Y-98793900D01*
X228455500Y-99594700D02*
X227835600Y-98974700D01*
X220223000Y-97687500D02*
X219987600Y-97452100D01*
X220250000Y-97892100D02*
X220223000Y-97865100D01*
X230225000Y-93500000D02*
X230225000Y-94151800D01*
X226700000Y-109903600D02*
X226700000Y-109195500D01*
X219879600Y-97452100D02*
X219821200Y-97510500D01*
X224835000Y-93500000D02*
X224835000Y-92789400D01*
X229500000Y-101000000D02*
X229973100Y-101473100D01*
X221227800Y-95820000D02*
X221712600Y-95335200D01*
D42*
X229820800Y-103817200D02*
X229903600Y-103900000D01*
D41*
X225020000Y-100020000D02*
X225020000Y-99902700D01*
X228128500Y-98681800D02*
X228128500Y-98113900D01*
X227835500Y-98974800D02*
X227835600Y-98974700D01*
X229973100Y-102145100D02*
X229820800Y-102297400D01*
X229240500Y-96640500D02*
X229240500Y-97001900D01*
X228700000Y-101000000D02*
X229500000Y-101000000D01*
X219821200Y-97510500D02*
X219821200Y-99178800D01*
D42*
X230483500Y-107500000D02*
X229903600Y-107500000D01*
D41*
X228128500Y-98113900D02*
X229240500Y-97001900D01*
X220250000Y-97500000D02*
X220250000Y-96791900D01*
X220250000Y-97854000D02*
X220250000Y-98208100D01*
X220250000Y-98208100D02*
X220250000Y-97892100D01*
X228100000Y-95500000D02*
X228100000Y-93825000D01*
X230225000Y-93500000D02*
X228225000Y-95500000D01*
X228100000Y-95500000D02*
X229240500Y-96640500D01*
X224960700Y-111656500D02*
X225282200Y-111335000D01*
D42*
X222388100Y-107510800D02*
X222388700Y-107510800D01*
D41*
X227835600Y-98974700D02*
X228128500Y-98681800D01*
D42*
X222388700Y-107510800D02*
X222399500Y-107500000D01*
D41*
X220250000Y-96570000D02*
X220250000Y-96791900D01*
X229356900Y-97001900D02*
X229240500Y-97001900D01*
X227218200Y-98974800D02*
X227835500Y-98974800D01*
%TO.N,+1V1*%
X222863100Y-99363100D02*
X222863100Y-97264400D01*
X223500000Y-100000000D02*
X222863100Y-99363100D01*
D42*
X227100000Y-109903600D02*
X227100000Y-110511500D01*
D41*
X226300000Y-103804500D02*
X226300000Y-103096400D01*
D42*
X227100000Y-110511500D02*
X227110900Y-110522400D01*
D41*
%TO.N,/ADC_AVDD*%
X229100000Y-103096400D02*
X229100000Y-102388300D01*
X229100000Y-102388300D02*
X229362800Y-102125500D01*
X231809500Y-101480000D02*
X232000000Y-101480000D01*
X231048800Y-100675300D02*
X231048800Y-100719300D01*
X229362800Y-102125500D02*
X229362800Y-101904300D01*
X231048800Y-100719300D02*
X231809500Y-101480000D01*
%TO.N,/XIN*%
X224077300Y-114442700D02*
X224077300Y-111951400D01*
X218985400Y-117518300D02*
X222649400Y-113854300D01*
X225900000Y-109195500D02*
X225900000Y-109006000D01*
X223374300Y-113854300D02*
X224020000Y-114500000D01*
X219500000Y-118665000D02*
X219835000Y-119000000D01*
X225900000Y-109006000D02*
X225871000Y-108977000D01*
X219500000Y-118665000D02*
X219298800Y-118665000D01*
X225900000Y-109903600D02*
X225900000Y-109195500D01*
X218985400Y-118351600D02*
X218985400Y-117518300D01*
X224020000Y-114500000D02*
X224077300Y-114442700D01*
X219298800Y-118665000D02*
X218985400Y-118351600D01*
X222649400Y-113854300D02*
X223374300Y-113854300D01*
X219835000Y-119000000D02*
X221500000Y-119000000D01*
%TO.N,VBUS*%
X236458100Y-80742300D02*
X236458100Y-79861900D01*
X233000000Y-85000000D02*
X233000000Y-84126800D01*
X232480000Y-105677400D02*
X232916100Y-105241300D01*
X236384500Y-80742300D02*
X236458100Y-80742300D01*
X224700000Y-80491700D02*
X224700000Y-80700000D01*
X232480000Y-107000000D02*
X232480000Y-105677400D01*
X236458100Y-79861900D02*
X236500000Y-79820000D01*
X233000000Y-84126800D02*
X236384500Y-80742300D01*
X224700000Y-79500000D02*
X224700000Y-80491700D01*
%TO.N,Net-(D2-A)*%
X225500000Y-87000000D02*
X223500000Y-85000000D01*
X223500000Y-85000000D02*
X220000000Y-85000000D01*
%TO.N,/USB_DM*%
X225933600Y-88305500D02*
X226124900Y-88114200D01*
X226124900Y-88114200D02*
X226124900Y-81133100D01*
X226440300Y-89229300D02*
X225933600Y-88722600D01*
X226124900Y-81133100D02*
X225483500Y-80491700D01*
X225990000Y-96990000D02*
X226440300Y-96539700D01*
X225933600Y-88722600D02*
X225933600Y-88305500D01*
X225350000Y-79500000D02*
X225350000Y-80491700D01*
X225483500Y-80491700D02*
X225350000Y-80491700D01*
X226440300Y-96539700D02*
X226440300Y-89229300D01*
%TO.N,/USB_DP*%
X226000000Y-79500000D02*
X226000000Y-80283400D01*
X226000000Y-80283400D02*
X226575900Y-80859300D01*
X226575900Y-80859300D02*
X226575900Y-88514000D01*
%TO.N,/GPIO16*%
X236500000Y-128080000D02*
X229449100Y-121029100D01*
D42*
X228700000Y-110956600D02*
X228700000Y-109903600D01*
D41*
X229449100Y-121029100D02*
X229449100Y-111669600D01*
X228736100Y-110956600D02*
X228700000Y-110956600D01*
X229449100Y-111669600D02*
X228736100Y-110956600D01*
D42*
%TO.N,/GPIO4*%
X223441300Y-105900000D02*
X223096400Y-105900000D01*
D41*
%TO.N,/GPIO20*%
X231055900Y-111004400D02*
X231051000Y-110999500D01*
X231055900Y-112350200D02*
X231055900Y-111004400D01*
X230745100Y-108241400D02*
X230670300Y-108241400D01*
X231051000Y-108547300D02*
X230745100Y-108241400D01*
D42*
X230670300Y-108241400D02*
X230611700Y-108300000D01*
D41*
X231051000Y-110999500D02*
X231051000Y-108547300D01*
X231256000Y-112550300D02*
X231055900Y-112350200D01*
D42*
X230611700Y-108300000D02*
X229903600Y-108300000D01*
D41*
%TO.N,/GPIO10*%
X221596500Y-109205400D02*
X222101900Y-108700000D01*
X215500000Y-112800000D02*
X218717600Y-112800000D01*
X218717600Y-112800000D02*
X221596500Y-109921100D01*
X221596500Y-109921100D02*
X221596500Y-109205400D01*
D42*
X222101900Y-108700000D02*
X223096400Y-108700000D01*
%TO.N,/GPIO8*%
X223096400Y-107900000D02*
X223793300Y-107900000D01*
X223804200Y-107889100D02*
X223793300Y-107900000D01*
X223804700Y-107889100D02*
X223804200Y-107889100D01*
D41*
%TO.N,/GPIO14*%
X218029100Y-117143500D02*
X218029100Y-122970900D01*
X224146700Y-111349700D02*
X223825000Y-111349700D01*
X218029100Y-122970900D02*
X215500000Y-125500000D01*
X222685500Y-112489200D02*
X222676200Y-112489200D01*
D42*
X224700000Y-109903600D02*
X224700000Y-110600500D01*
D41*
X222323600Y-112841800D02*
X222323600Y-112849000D01*
X222676200Y-112489200D02*
X222323600Y-112841800D01*
X224700000Y-110796400D02*
X224146700Y-111349700D01*
D42*
X224700000Y-110796400D02*
X224700000Y-110600500D01*
D41*
X223825000Y-111349700D02*
X222685500Y-112489200D01*
X222323600Y-112849000D02*
X218029100Y-117143500D01*
%TO.N,/GPIO12*%
X223349900Y-110030100D02*
X215500000Y-117880000D01*
X223773300Y-110030100D02*
X223349900Y-110030100D01*
D42*
X223899800Y-109903600D02*
X223900000Y-109903600D01*
X223773300Y-110030100D02*
X223899800Y-109903600D01*
D41*
%TO.N,/GPOI11*%
X222388300Y-109699400D02*
X222388300Y-109100000D01*
X223096400Y-109100000D02*
X222388300Y-109100000D01*
X216747700Y-115340000D02*
X222388300Y-109699400D01*
X215500000Y-115340000D02*
X216747700Y-115340000D01*
D42*
%TO.N,/GPIO26_ADC0*%
X230611900Y-105510900D02*
X230611400Y-105510900D01*
X230611400Y-105510900D02*
X230600500Y-105500000D01*
X229903600Y-105500000D02*
X230600500Y-105500000D01*
%TO.N,/GPIO2*%
X223793300Y-105098800D02*
X223793300Y-105100000D01*
X223803000Y-105089100D02*
X223793300Y-105098800D01*
X223096400Y-105100000D02*
X223793300Y-105100000D01*
%TO.N,/GPIO5*%
X223085500Y-106310900D02*
X223096400Y-106300000D01*
X222532400Y-106310900D02*
X223085500Y-106310900D01*
D41*
%TO.N,/GPIO15*%
X224889700Y-108985200D02*
X225100000Y-109195500D01*
X215500000Y-128040000D02*
X218508000Y-125032000D01*
X222829500Y-113090900D02*
X222925300Y-113090900D01*
X225100000Y-109903600D02*
X225100000Y-109195500D01*
X218508000Y-117412400D02*
X222829500Y-113090900D01*
X218508000Y-125032000D02*
X218508000Y-117412400D01*
%TO.N,/ADC_VREF*%
X229137000Y-98987000D02*
X229137000Y-97956200D01*
X229500000Y-99350000D02*
X229137000Y-98987000D01*
%TO.N,/GPIO17*%
X229850800Y-118890800D02*
X229850800Y-111503300D01*
X236500000Y-125540000D02*
X229850800Y-118890800D01*
X229834000Y-111345700D02*
X229100000Y-110611700D01*
X229850800Y-111503300D02*
X229834000Y-111486500D01*
X229100000Y-109903600D02*
X229100000Y-110611700D01*
X229834000Y-111486500D02*
X229834000Y-111345700D01*
D42*
%TO.N,/GPIO18*%
X229903600Y-109101900D02*
X229903600Y-109100000D01*
D41*
%TO.N,/3V3_EN*%
X229112700Y-90162300D02*
X229112700Y-88827300D01*
X230500000Y-86500000D02*
X230500000Y-87440000D01*
X229112700Y-88827300D02*
X230500000Y-87440000D01*
X227775000Y-91500000D02*
X229112700Y-90162300D01*
%TO.N,/RUN*%
X228297700Y-111369100D02*
X228621700Y-111693100D01*
X228300000Y-109903600D02*
X228300000Y-110611700D01*
X228297700Y-110614000D02*
X228297700Y-111369100D01*
X228300000Y-110611700D02*
X228297700Y-110614000D01*
%TO.N,/GPIO13*%
X223985700Y-110611700D02*
X217546600Y-117050800D01*
X224300000Y-109903600D02*
X224300000Y-110611700D01*
X224300000Y-110611700D02*
X223985700Y-110611700D01*
X217546600Y-118373500D02*
X217546500Y-118373500D01*
X217546500Y-118373500D02*
X215500000Y-120420000D01*
X217546600Y-117050800D02*
X217546600Y-118373500D01*
%TO.N,/SWDIO*%
X227836500Y-113443200D02*
X227836500Y-110665400D01*
X227836500Y-110665400D02*
X227835800Y-110664700D01*
X229040000Y-114646700D02*
X227836500Y-113443200D01*
X229040000Y-128000000D02*
X229040000Y-114646700D01*
D42*
X227900000Y-109903600D02*
X227900000Y-110600500D01*
X227835800Y-110664700D02*
X227900000Y-110600500D01*
D41*
%TO.N,/SWCLK*%
X223960000Y-120398500D02*
X223960000Y-128000000D01*
%TO.N,Net-(U2-LX1)*%
X231985000Y-92000000D02*
X230225000Y-92000000D01*
X233015000Y-90970000D02*
X231985000Y-92000000D01*
%TO.N,Net-(U2-LX2)*%
X230225000Y-93000000D02*
X232019800Y-93000000D01*
X233649800Y-91370000D02*
X233649800Y-90634800D01*
X232019800Y-93000000D02*
X233649800Y-91370000D01*
X233649800Y-90634800D02*
X233015000Y-90000000D01*
%TO.N,/GPIO29_ADC3*%
X232942900Y-100702100D02*
X231924300Y-100702100D01*
X233500000Y-100145000D02*
X232942900Y-100702100D01*
D42*
X229914500Y-104289100D02*
X229903600Y-104300000D01*
X230594200Y-104289100D02*
X229914500Y-104289100D01*
D41*
%TO.N,Net-(R2-Pad1)*%
X219925000Y-93650000D02*
X219925000Y-94476700D01*
X219925000Y-93236600D02*
X219925000Y-93650000D01*
X219925000Y-93236600D02*
X219925000Y-92823300D01*
X219925000Y-94476700D02*
X219925000Y-96075000D01*
X219925000Y-96075000D02*
X218500000Y-97500000D01*
X219925000Y-92823300D02*
X219925000Y-89500000D01*
%TO.N,/GPIO24*%
X232480000Y-108020000D02*
X233500000Y-107000000D01*
%TO.N,/GPIO23*%
X221811500Y-87831500D02*
X221811500Y-87939600D01*
X227048300Y-92000000D02*
X227048300Y-89194900D01*
X227775000Y-92000000D02*
X227048300Y-92000000D01*
X220980000Y-87000000D02*
X221811500Y-87831500D01*
%TO.N,/USB_DMX*%
X225990000Y-98010000D02*
X226825700Y-98010000D01*
%TO.N,/XOUT*%
X224809800Y-115190200D02*
X224809800Y-114385300D01*
D42*
X226300000Y-110248500D02*
X226300000Y-109903600D01*
D41*
X224000000Y-116000000D02*
X224809800Y-115190200D01*
X223000000Y-115000000D02*
X224000000Y-116000000D01*
X223000000Y-114500000D02*
X223000000Y-115000000D01*
D42*
%TO.N,/SQPI_SD2*%
X224705500Y-102746000D02*
X224705500Y-103090900D01*
X224705500Y-103090900D02*
X224700000Y-103096400D01*
D41*
%TO.N,/SQPI_SS_N*%
X217877800Y-97102200D02*
X217877800Y-98158200D01*
X219978500Y-101045300D02*
X219978500Y-101018400D01*
X221798000Y-102969700D02*
X220250000Y-101421700D01*
X220036900Y-101103700D02*
X219978500Y-101045300D01*
X218370600Y-99350600D02*
X218370600Y-98651000D01*
X220250000Y-101103700D02*
X220036900Y-101103700D01*
X223773300Y-102969700D02*
X221798000Y-102969700D01*
X219539800Y-100579700D02*
X219539800Y-100311500D01*
X217877800Y-98158200D02*
X218370600Y-98651000D01*
X219978500Y-101018400D02*
X219539800Y-100579700D01*
X220250000Y-101421700D02*
X220250000Y-101103700D01*
D42*
X223773300Y-102969700D02*
X223900000Y-103096400D01*
D41*
X218500000Y-96480000D02*
X217877800Y-97102200D01*
X218500000Y-99480000D02*
X218370600Y-99350600D01*
X220250000Y-100395600D02*
X220250000Y-101103700D01*
%TO.N,Net-(Q1-D)*%
X233458600Y-98456900D02*
X234000000Y-97915500D01*
X233000000Y-98456900D02*
X233000000Y-98855000D01*
X234122600Y-101897400D02*
X233500000Y-102520000D01*
X233000000Y-98456900D02*
X233458600Y-98456900D01*
X234112700Y-100618200D02*
X234122600Y-100628100D01*
X234000000Y-97915500D02*
X234000000Y-97510000D01*
X233458600Y-98456900D02*
X234112700Y-99111000D01*
X232000000Y-97475000D02*
X232981900Y-98456900D01*
X234112700Y-99111000D02*
X234112700Y-100618200D01*
X232981900Y-98456900D02*
X233000000Y-98456900D01*
X234122600Y-100628100D02*
X234122600Y-101897400D01*
%TO.N,/XR*%
X225000000Y-118665000D02*
X224780600Y-118665000D01*
X224274800Y-117700000D02*
X224274800Y-116745200D01*
X223200000Y-117700000D02*
X224051700Y-117700000D01*
X224274800Y-118159200D02*
X224274800Y-117700000D01*
X224274800Y-116745200D02*
X225020000Y-116000000D01*
X224780600Y-118665000D02*
X224274800Y-118159200D01*
X224274800Y-117700000D02*
X224051700Y-117700000D01*
%TO.N,GND*%
X225475000Y-95019600D02*
X225475000Y-93500000D01*
X223859400Y-96635200D02*
X225475000Y-95019600D01*
X223859400Y-98841600D02*
X223859400Y-96635200D01*
X224135000Y-99117200D02*
X223859400Y-98841600D01*
X224135000Y-100960000D02*
X224135000Y-99117200D01*
%TD*%
D43*
X230513470Y-101862000D03*
X227699999Y-103996934D03*
X219801999Y-104772000D03*
X217332000Y-104902000D03*
X235458000Y-100838000D03*
X228957025Y-105305505D03*
X224321999Y-106590278D03*
X215963700Y-100838000D03*
X221501503Y-107320959D03*
X215138000Y-106426000D03*
X228993152Y-104002480D03*
X236474000Y-96266000D03*
X234721352Y-106412028D03*
X228997432Y-108995816D03*
X231980956Y-108100282D03*
X231301999Y-106905500D03*
X225806000Y-101346000D03*
X225283085Y-98791085D03*
X226174563Y-102191337D03*
X221964200Y-96266000D03*
X225044000Y-104002802D03*
X222507373Y-100419900D03*
X222564200Y-95564200D03*
X225305500Y-102201277D03*
X227048300Y-94778400D03*
X232829500Y-94778400D03*
X219040000Y-108900000D03*
X229375000Y-84900000D03*
X232713900Y-97116400D03*
X229663500Y-90741600D03*
X226914000Y-106500000D03*
X224960700Y-113583500D03*
X226700000Y-108984400D03*
X230225000Y-94151800D03*
X219672300Y-110419200D03*
X224835000Y-94219500D03*
X221712600Y-95335200D03*
X224835000Y-92789400D03*
X222863100Y-97264400D03*
X227380985Y-116128985D03*
X223264300Y-96164200D03*
X226089527Y-104160478D03*
X229362800Y-101904300D03*
X231048800Y-100675300D03*
X227104395Y-99563909D03*
X224077300Y-111951400D03*
X225871000Y-108977000D03*
X235712000Y-104158000D03*
X224700000Y-80700000D03*
X232916100Y-105241300D03*
X225288400Y-88334400D03*
X226575900Y-88514000D03*
X224282000Y-105664000D03*
X231256000Y-112550300D03*
X236474000Y-114300000D03*
X223996254Y-107320959D03*
X218400400Y-107748600D03*
X235356159Y-105827011D03*
X228854000Y-107188000D03*
X230747080Y-105431722D03*
X236472799Y-101401709D03*
X224002605Y-104002923D03*
X222250425Y-106372824D03*
X222925300Y-113090900D03*
X224889700Y-108985200D03*
X229137000Y-97956200D03*
X221468590Y-104095420D03*
X230500000Y-87440000D03*
X221409637Y-105313321D03*
X228621700Y-111693100D03*
X227995100Y-108997198D03*
X223960000Y-120398500D03*
X230481900Y-102742100D03*
X231924300Y-100702100D03*
X221811500Y-87939600D03*
X227048300Y-89194900D03*
X226825700Y-98010000D03*
X227853800Y-99843900D03*
X224809800Y-114385300D03*
X226795100Y-114554000D03*
X218370600Y-98651000D03*
X219539800Y-100311500D03*
X220750112Y-108561592D03*
D44*
X236500000Y-128080000D03*
X236500000Y-125540000D03*
X236500000Y-123000000D03*
X236500000Y-120460000D03*
X236500000Y-117920000D03*
X236500000Y-115380000D03*
X236500000Y-112840000D03*
X236500000Y-110300000D03*
X236500000Y-107760000D03*
X236500000Y-105220000D03*
X236500000Y-102680000D03*
X236500000Y-100140000D03*
X236500000Y-97600000D03*
X236500000Y-95060000D03*
X236500000Y-92520000D03*
X236500000Y-89980000D03*
X236500000Y-87440000D03*
X236500000Y-84900000D03*
X236500000Y-82360000D03*
X236500000Y-79820000D03*
X215500000Y-79780000D03*
X215500000Y-82320000D03*
X215500000Y-84860000D03*
X215500000Y-87400000D03*
X215500000Y-89940000D03*
X215500000Y-92480000D03*
X215500000Y-95020000D03*
X215500000Y-97560000D03*
X215500000Y-100100000D03*
X215500000Y-102640000D03*
X215500000Y-105180000D03*
X215500000Y-107720000D03*
X215500000Y-110260000D03*
X215500000Y-112800000D03*
X215500000Y-115340000D03*
X215500000Y-117880000D03*
X215500000Y-120420000D03*
X215500000Y-122960000D03*
X215500000Y-125500000D03*
X215500000Y-128040000D03*
X223960000Y-128000000D03*
X226500000Y-128000000D03*
X229040000Y-128000000D03*
M02*
