M48
METRIC,TZ
T1C0.300
T2C0.762
%
G90
G05
T1
X215138Y-106426
X215964Y-100838
X217332Y-104902
X218371Y-98651
X218400Y-107749
X219040Y-108900
X219540Y-100312
X219672Y-110419
X219802Y-104772
X220750Y-108562
X221410Y-105313
X221469Y-104095
X221502Y-107321
X221713Y-95335
X221811Y-87940
X221964Y-96266
X222250Y-106373
X222507Y-100420
X222564Y-95564
X222863Y-97264
X222925Y-113091
X223264Y-96164
X223960Y-120398
X223996Y-107321
X224003Y-104003
X224077Y-111951
X224282Y-105664
X224322Y-106590
X224700Y-80700
X224810Y-114385
X224835Y-92789
X224835Y-94219
X224890Y-108985
X224961Y-113584
X225044Y-104003
X225283Y-98791
X225288Y-88334
X225306Y-102201
X225806Y-101346
X225871Y-108977
X226090Y-104160
X226175Y-102191
X226576Y-88514
X226700Y-108984
X226795Y-114554
X226826Y-98010
X226914Y-106500
X227048Y-89195
X227048Y-94778
X227104Y-99564
X227381Y-116129
X227700Y-103997
X227854Y-99844
X227995Y-108997
X228622Y-111693
X228854Y-107188
X228957Y-105306
X228993Y-104002
X228997Y-108996
X229137Y-97956
X229363Y-101904
X229375Y-84900
X229664Y-90742
X230225Y-94152
X230482Y-102742
X230500Y-87440
X230513Y-101862
X230747Y-105432
X231049Y-100675
X231256Y-112550
X231302Y-106906
X231924Y-100702
X231981Y-108100
X232714Y-97116
X232830Y-94778
X232916Y-105241
X234721Y-106412
X235356Y-105827
X235458Y-100838
X235712Y-104158
X236473Y-101402
X236474Y-96266
X236474Y-114300
T2
X215500Y-79780
X215500Y-82320
X215500Y-84860
X215500Y-87400
X215500Y-89940
X215500Y-92480
X215500Y-95020
X215500Y-97560
X215500Y-100100
X215500Y-102640
X215500Y-105180
X215500Y-107720
X215500Y-110260
X215500Y-112800
X215500Y-115340
X215500Y-117880
X215500Y-120420
X215500Y-122960
X215500Y-125500
X215500Y-128040
X223960Y-128000
X226500Y-128000
X229040Y-128000
X236500Y-79820
X236500Y-82360
X236500Y-84900
X236500Y-87440
X236500Y-89980
X236500Y-92520
X236500Y-95060
X236500Y-97600
X236500Y-100140
X236500Y-102680
X236500Y-105220
X236500Y-107760
X236500Y-110300
X236500Y-112840
X236500Y-115380
X236500Y-117920
X236500Y-120460
X236500Y-123000
X236500Y-125540
X236500Y-128080
M30
