%TF.GenerationSoftware,KiCad,Pcbnew,8.0.7*%
%TF.CreationDate,2025-02-02T23:02:37+05:30*%
%TF.ProjectId,my-template,6d792d74-656d-4706-9c61-74652e6b6963,rev?*%
%TF.SameCoordinates,Original*%
%TF.FileFunction,Soldermask,Top*%
%TF.FilePolarity,Negative*%
%FSLAX46Y46*%
G04 Gerber Fmt 4.6, Leading zero omitted, Abs format (unit mm)*
G04 Created by KiCad (PCBNEW 8.0.7) date 2025-02-02 23:02:37*
%MOMM*%
%LPD*%
G01*
G04 APERTURE LIST*
G04 Aperture macros list*
%AMRoundRect*
0 Rectangle with rounded corners*
0 $1 Rounding radius*
0 $2 $3 $4 $5 $6 $7 $8 $9 X,Y pos of 4 corners*
0 Add a 4 corners polygon primitive as box body*
4,1,4,$2,$3,$4,$5,$6,$7,$8,$9,$2,$3,0*
0 Add four circle primitives for the rounded corners*
1,1,$1+$1,$2,$3*
1,1,$1+$1,$4,$5*
1,1,$1+$1,$6,$7*
1,1,$1+$1,$8,$9*
0 Add four rect primitives between the rounded corners*
20,1,$1+$1,$2,$3,$4,$5,0*
20,1,$1+$1,$4,$5,$6,$7,0*
20,1,$1+$1,$6,$7,$8,$9,0*
20,1,$1+$1,$8,$9,$2,$3,0*%
G04 Aperture macros list end*
%ADD10C,0.010000*%
%ADD11C,1.524000*%
%ADD12RoundRect,0.147500X0.172500X-0.147500X0.172500X0.147500X-0.172500X0.147500X-0.172500X-0.147500X0*%
%ADD13R,1.092200X1.143000*%
%ADD14RoundRect,0.135000X-0.185000X0.135000X-0.185000X-0.135000X0.185000X-0.135000X0.185000X0.135000X0*%
%ADD15R,0.812800X0.177800*%
%ADD16R,0.177800X0.812800*%
%ADD17R,3.200400X3.200400*%
%ADD18RoundRect,0.135000X0.185000X-0.135000X0.185000X0.135000X-0.185000X0.135000X-0.185000X-0.135000X0*%
%ADD19RoundRect,0.135000X-0.135000X-0.185000X0.135000X-0.185000X0.135000X0.185000X-0.135000X0.185000X0*%
%ADD20RoundRect,0.200000X-0.275000X0.200000X-0.275000X-0.200000X0.275000X-0.200000X0.275000X0.200000X0*%
%ADD21RoundRect,0.100000X-0.130000X-0.100000X0.130000X-0.100000X0.130000X0.100000X-0.130000X0.100000X0*%
%ADD22RoundRect,0.100000X0.130000X0.100000X-0.130000X0.100000X-0.130000X-0.100000X0.130000X-0.100000X0*%
%ADD23RoundRect,0.140000X-0.170000X0.140000X-0.170000X-0.140000X0.170000X-0.140000X0.170000X0.140000X0*%
%ADD24RoundRect,0.100000X0.100000X-0.130000X0.100000X0.130000X-0.100000X0.130000X-0.100000X-0.130000X0*%
%ADD25RoundRect,0.100000X-0.100000X0.130000X-0.100000X-0.130000X0.100000X-0.130000X0.100000X0.130000X0*%
%ADD26RoundRect,0.100000X-0.100000X0.155000X-0.100000X-0.155000X0.100000X-0.155000X0.100000X0.155000X0*%
%ADD27RoundRect,0.250000X-0.250000X-0.475000X0.250000X-0.475000X0.250000X0.475000X-0.250000X0.475000X0*%
%ADD28R,0.254000X0.812800*%
%ADD29R,1.651000X0.254000*%
%ADD30RoundRect,0.140000X-0.140000X-0.170000X0.140000X-0.170000X0.140000X0.170000X-0.140000X0.170000X0*%
%ADD31RoundRect,0.102000X0.325000X-0.525000X0.325000X0.525000X-0.325000X0.525000X-0.325000X-0.525000X0*%
%ADD32RoundRect,0.076200X-0.225000X-0.690000X0.225000X-0.690000X0.225000X0.690000X-0.225000X0.690000X0*%
%ADD33RoundRect,0.076200X-0.712500X-0.775000X0.712500X-0.775000X0.712500X0.775000X-0.712500X0.775000X0*%
%ADD34RoundRect,0.076200X-0.825000X-0.650000X0.825000X-0.650000X0.825000X0.650000X-0.825000X0.650000X0*%
%ADD35RoundRect,0.076200X-0.900000X-0.950000X0.900000X-0.950000X0.900000X0.950000X-0.900000X0.950000X0*%
%ADD36RoundRect,0.076200X-0.500000X-0.950000X0.500000X-0.950000X0.500000X0.950000X-0.500000X0.950000X0*%
%ADD37R,1.100000X0.900000*%
%ADD38RoundRect,0.147500X-0.147500X-0.172500X0.147500X-0.172500X0.147500X0.172500X-0.147500X0.172500X0*%
G04 APERTURE END LIST*
D10*
%TO.C,U2*%
X228250000Y-91700000D02*
X227300000Y-91700000D01*
X227300000Y-91300000D01*
X228250000Y-91300000D01*
X228250000Y-91700000D01*
G36*
X228250000Y-91700000D02*
G01*
X227300000Y-91700000D01*
X227300000Y-91300000D01*
X228250000Y-91300000D01*
X228250000Y-91700000D01*
G37*
X228250000Y-92200000D02*
X227300000Y-92200000D01*
X227300000Y-91800000D01*
X228250000Y-91800000D01*
X228250000Y-92200000D01*
G36*
X228250000Y-92200000D02*
G01*
X227300000Y-92200000D01*
X227300000Y-91800000D01*
X228250000Y-91800000D01*
X228250000Y-92200000D01*
G37*
X228250000Y-92700000D02*
X227300000Y-92700000D01*
X227300000Y-92300000D01*
X228250000Y-92300000D01*
X228250000Y-92700000D01*
G36*
X228250000Y-92700000D02*
G01*
X227300000Y-92700000D01*
X227300000Y-92300000D01*
X228250000Y-92300000D01*
X228250000Y-92700000D01*
G37*
X228250000Y-93200000D02*
X227300000Y-93200000D01*
X227300000Y-92800000D01*
X228250000Y-92800000D01*
X228250000Y-93200000D01*
G36*
X228250000Y-93200000D02*
G01*
X227300000Y-93200000D01*
X227300000Y-92800000D01*
X228250000Y-92800000D01*
X228250000Y-93200000D01*
G37*
X228250000Y-93700000D02*
X227300000Y-93700000D01*
X227300000Y-93300000D01*
X228250000Y-93300000D01*
X228250000Y-93700000D01*
G36*
X228250000Y-93700000D02*
G01*
X227300000Y-93700000D01*
X227300000Y-93300000D01*
X228250000Y-93300000D01*
X228250000Y-93700000D01*
G37*
X229650000Y-93550000D02*
X228350000Y-93550000D01*
X228350000Y-91450000D01*
X229650000Y-91450000D01*
X229650000Y-93550000D01*
G36*
X229650000Y-93550000D02*
G01*
X228350000Y-93550000D01*
X228350000Y-91450000D01*
X229650000Y-91450000D01*
X229650000Y-93550000D01*
G37*
X230700000Y-91700000D02*
X229750000Y-91700000D01*
X229750000Y-91300000D01*
X230700000Y-91300000D01*
X230700000Y-91700000D01*
G36*
X230700000Y-91700000D02*
G01*
X229750000Y-91700000D01*
X229750000Y-91300000D01*
X230700000Y-91300000D01*
X230700000Y-91700000D01*
G37*
X230700000Y-92200000D02*
X229750000Y-92200000D01*
X229750000Y-91800000D01*
X230700000Y-91800000D01*
X230700000Y-92200000D01*
G36*
X230700000Y-92200000D02*
G01*
X229750000Y-92200000D01*
X229750000Y-91800000D01*
X230700000Y-91800000D01*
X230700000Y-92200000D01*
G37*
X230700000Y-92700000D02*
X229750000Y-92700000D01*
X229750000Y-92300000D01*
X230700000Y-92300000D01*
X230700000Y-92700000D01*
G36*
X230700000Y-92700000D02*
G01*
X229750000Y-92700000D01*
X229750000Y-92300000D01*
X230700000Y-92300000D01*
X230700000Y-92700000D01*
G37*
X230700000Y-93200000D02*
X229750000Y-93200000D01*
X229750000Y-92800000D01*
X230700000Y-92800000D01*
X230700000Y-93200000D01*
G36*
X230700000Y-93200000D02*
G01*
X229750000Y-93200000D01*
X229750000Y-92800000D01*
X230700000Y-92800000D01*
X230700000Y-93200000D01*
G37*
X230700000Y-93700000D02*
X229750000Y-93700000D01*
X229750000Y-93300000D01*
X230700000Y-93300000D01*
X230700000Y-93700000D01*
G36*
X230700000Y-93700000D02*
G01*
X229750000Y-93700000D01*
X229750000Y-93300000D01*
X230700000Y-93300000D01*
X230700000Y-93700000D01*
G37*
%TD*%
D11*
%TO.C,J2*%
X236500000Y-128080000D03*
X236500000Y-125540000D03*
X236500000Y-123000000D03*
X236500000Y-120460000D03*
X236500000Y-117920000D03*
X236500000Y-115380000D03*
X236500000Y-112840000D03*
X236500000Y-110300000D03*
X236500000Y-107760000D03*
X236500000Y-105220000D03*
X236500000Y-102680000D03*
X236500000Y-100140000D03*
X236500000Y-97600000D03*
X236500000Y-95060000D03*
X236500000Y-92520000D03*
X236500000Y-89980000D03*
X236500000Y-87440000D03*
X236500000Y-84900000D03*
X236500000Y-82360000D03*
X236500000Y-79820000D03*
%TD*%
D12*
%TO.C,L1*%
X233015000Y-90970000D03*
X233015000Y-90000000D03*
%TD*%
D13*
%TO.C,D1*%
X233000000Y-88073400D03*
X233000000Y-85000000D03*
%TD*%
D14*
%TO.C,R12*%
X225990000Y-96990000D03*
X225990000Y-98010000D03*
%TD*%
D11*
%TO.C,J4*%
X215500000Y-79780000D03*
X215500000Y-82320000D03*
X215500000Y-84860000D03*
X215500000Y-87400000D03*
X215500000Y-89940000D03*
X215500000Y-92480000D03*
X215500000Y-95020000D03*
X215500000Y-97560000D03*
X215500000Y-100100000D03*
X215500000Y-102640000D03*
X215500000Y-105180000D03*
X215500000Y-107720000D03*
X215500000Y-110260000D03*
X215500000Y-112800000D03*
X215500000Y-115340000D03*
X215500000Y-117880000D03*
X215500000Y-120420000D03*
X215500000Y-122960000D03*
X215500000Y-125500000D03*
X215500000Y-128040000D03*
%TD*%
D15*
%TO.C,U3*%
X223096400Y-103900000D03*
X223096400Y-104299999D03*
X223096400Y-104700001D03*
X223096400Y-105100000D03*
X223096400Y-105499999D03*
X223096400Y-105900001D03*
X223096400Y-106300000D03*
X223096400Y-106700000D03*
X223096400Y-107099999D03*
X223096400Y-107500001D03*
X223096400Y-107900000D03*
X223096400Y-108299999D03*
X223096400Y-108700001D03*
X223096400Y-109100000D03*
D16*
X223900000Y-109903600D03*
X224299999Y-109903600D03*
X224700001Y-109903600D03*
X225100000Y-109903600D03*
X225499999Y-109903600D03*
X225900001Y-109903600D03*
X226300000Y-109903600D03*
X226700000Y-109903600D03*
X227099999Y-109903600D03*
X227500001Y-109903600D03*
X227900000Y-109903600D03*
X228299999Y-109903600D03*
X228700001Y-109903600D03*
X229100000Y-109903600D03*
D15*
X229903600Y-109100000D03*
X229903600Y-108700001D03*
X229903600Y-108299999D03*
X229903600Y-107900000D03*
X229903600Y-107500001D03*
X229903600Y-107099999D03*
X229903600Y-106700000D03*
X229903600Y-106300000D03*
X229903600Y-105900001D03*
X229903600Y-105499999D03*
X229903600Y-105100000D03*
X229903600Y-104700001D03*
X229903600Y-104299999D03*
X229903600Y-103900000D03*
D16*
X229100000Y-103096400D03*
X228700001Y-103096400D03*
X228299999Y-103096400D03*
X227900000Y-103096400D03*
X227500001Y-103096400D03*
X227099999Y-103096400D03*
X226700000Y-103096400D03*
X226300000Y-103096400D03*
X225900001Y-103096400D03*
X225499999Y-103096400D03*
X225100000Y-103096400D03*
X224700001Y-103096400D03*
X224299999Y-103096400D03*
X223900000Y-103096400D03*
D17*
X226500000Y-106500000D03*
%TD*%
D18*
%TO.C,R7*%
X234000000Y-97510000D03*
X234000000Y-96490000D03*
%TD*%
D19*
%TO.C,R5*%
X229480000Y-86500000D03*
X230500000Y-86500000D03*
%TD*%
D20*
%TO.C,R9*%
X229500000Y-99350000D03*
X229500000Y-101000000D03*
%TD*%
D21*
%TO.C,C7*%
X224835000Y-91000000D03*
X225475000Y-91000000D03*
%TD*%
%TO.C,C11*%
X231525000Y-105000000D03*
X232165000Y-105000000D03*
%TD*%
D22*
%TO.C,C12*%
X232320000Y-111500000D03*
X231680000Y-111500000D03*
%TD*%
D23*
%TO.C,C8*%
X223500000Y-100000000D03*
X223500000Y-100960000D03*
%TD*%
D21*
%TO.C,C14*%
X220475000Y-106500000D03*
X219835000Y-106500000D03*
%TD*%
D24*
%TO.C,C13*%
X219500000Y-118665000D03*
X219500000Y-118025000D03*
%TD*%
D25*
%TO.C,C15*%
X225500000Y-111335000D03*
X225500000Y-111975000D03*
%TD*%
D18*
%TO.C,R10*%
X232000000Y-102500000D03*
X232000000Y-101480000D03*
%TD*%
D14*
%TO.C,R11*%
X224500000Y-97000000D03*
X224500000Y-98020000D03*
%TD*%
D24*
%TO.C,C3*%
X221000000Y-95820000D03*
X221000000Y-95180000D03*
%TD*%
D18*
%TO.C,R2*%
X218500000Y-97500000D03*
X218500000Y-96480000D03*
%TD*%
D19*
%TO.C,R3*%
X232480000Y-107000000D03*
X233500000Y-107000000D03*
%TD*%
D26*
%TO.C,Q1*%
X232500000Y-100145000D03*
X233500000Y-100145000D03*
X233000000Y-98855000D03*
%TD*%
D23*
%TO.C,C9*%
X227020000Y-100040000D03*
X227020000Y-101000000D03*
%TD*%
D19*
%TO.C,R13*%
X224480000Y-87000000D03*
X225500000Y-87000000D03*
%TD*%
%TO.C,R4*%
X232480000Y-108500000D03*
X233500000Y-108500000D03*
%TD*%
D21*
%TO.C,C10*%
X224835000Y-93500000D03*
X225475000Y-93500000D03*
%TD*%
D24*
%TO.C,C18*%
X226500000Y-111975000D03*
X226500000Y-111335000D03*
%TD*%
D19*
%TO.C,R14*%
X223000000Y-114500000D03*
X224020000Y-114500000D03*
%TD*%
D27*
%TO.C,C1*%
X228100000Y-89500000D03*
X230000000Y-89500000D03*
%TD*%
D28*
%TO.C,U1*%
X220249999Y-100395600D03*
X220750000Y-100395600D03*
X221250000Y-100395600D03*
X221750001Y-100395600D03*
X221750001Y-97500000D03*
X221250000Y-97500000D03*
X220750000Y-97500000D03*
X220249999Y-97500000D03*
D29*
X221000000Y-98947800D03*
%TD*%
D27*
%TO.C,C5*%
X228100000Y-95500000D03*
X230000000Y-95500000D03*
%TD*%
D18*
%TO.C,R8*%
X233500000Y-102520000D03*
X233500000Y-101500000D03*
%TD*%
D30*
%TO.C,C4*%
X219540000Y-103000000D03*
X220500000Y-103000000D03*
%TD*%
D24*
%TO.C,C17*%
X225000000Y-118665000D03*
X225000000Y-118025000D03*
%TD*%
%TO.C,C2*%
X232000000Y-97475000D03*
X232000000Y-96835000D03*
%TD*%
D31*
%TO.C,SW1*%
X219925000Y-89500000D03*
X219925000Y-93650000D03*
X222075000Y-89500000D03*
X222075000Y-93650000D03*
%TD*%
D11*
%TO.C,J3*%
X223960000Y-128000000D03*
X226500000Y-128000000D03*
X229040000Y-128000000D03*
%TD*%
D32*
%TO.C,J1*%
X224700000Y-79500000D03*
X225350000Y-79500000D03*
X226000000Y-79500000D03*
X226650000Y-79500000D03*
X227300000Y-79500000D03*
D33*
X223512500Y-79585000D03*
X228487500Y-79585000D03*
D34*
X222625000Y-82160000D03*
D35*
X224850000Y-82160000D03*
D36*
X227550000Y-82160000D03*
D34*
X229375000Y-82160000D03*
%TD*%
D37*
%TO.C,X1*%
X221500000Y-119000000D03*
X223200000Y-119000000D03*
X223200000Y-117700000D03*
X221500000Y-117700000D03*
%TD*%
D21*
%TO.C,C16*%
X219835000Y-109500000D03*
X220475000Y-109500000D03*
%TD*%
D18*
%TO.C,R1*%
X218500000Y-100500000D03*
X218500000Y-99480000D03*
%TD*%
D19*
%TO.C,R15*%
X224000000Y-116000000D03*
X225020000Y-116000000D03*
%TD*%
D38*
%TO.C,D2*%
X219030000Y-85000000D03*
X220000000Y-85000000D03*
%TD*%
D19*
%TO.C,R6*%
X220980000Y-87000000D03*
X222000000Y-87000000D03*
%TD*%
D23*
%TO.C,C6*%
X225020000Y-100980000D03*
X225020000Y-100020000D03*
%TD*%
M02*
